<svg width="64" height="53" viewBox="0 0 64 53" fill="none" xmlns="http://www.w3.org/2000/svg">
<g filter="url(#filter0_d_126_766)">
<rect x="9.78616" y="10.5862" width="36.4138" height="24.8276" rx="3" fill="url(#paint0_linear_126_766)" stroke="black" stroke-miterlimit="10"/>
<mask id="mask0_126_766" style="mask-type:alpha" maskUnits="userSpaceOnUse" x="9" y="10" width="38" height="26">
<rect x="9.78616" y="10.5862" width="36.4138" height="24.8276" rx="3" fill="url(#paint1_linear_126_766)" stroke="#333333" stroke-width="0.793418" stroke-miterlimit="10"/>
</mask>
<g mask="url(#mask0_126_766)">
<path d="M10.5953 19.0969H46.1999" stroke="black" stroke-width="0.793418" stroke-miterlimit="10"/>
<path d="M10.5952 26.9618H46.1998" stroke="black" stroke-width="0.793418" stroke-miterlimit="10"/>
<path d="M22.6427 10.5864C25.1864 10.5864 28.3659 13.5211 28.3659 15.8689C28.3659 18.2167 26.331 19.0384 23.7874 19.0384" stroke="black" stroke-width="0.793418" stroke-miterlimit="10"/>
<path d="M34.2168 10.5863C31.6732 10.5863 28.4936 13.5211 28.4936 15.8688C28.4936 18.2166 30.5286 19.0383 33.0722 19.0383" stroke="black" stroke-width="0.793418" stroke-miterlimit="10"/>
<path d="M23.7874 26.9619C26.331 26.9619 28.3659 27.7836 28.3659 30.1313C28.3659 32.4791 25.1864 35.4138 22.6427 35.4138" stroke="black" stroke-width="0.793418" stroke-miterlimit="10"/>
<path d="M33.0722 26.9617C30.5286 26.9617 28.4936 27.7835 28.4936 30.1312C28.4936 32.479 31.6732 35.4137 34.2168 35.4137" stroke="black" stroke-width="0.793418" stroke-miterlimit="10"/>
<path d="M24.2959 19.0968V26.9618" stroke="black" stroke-width="0.793418" stroke-miterlimit="10"/>
<path d="M32.4988 19.0967V26.9618" stroke="black" stroke-width="0.793418" stroke-miterlimit="10"/>
</g>
</g>
<defs>
<filter id="filter0_d_126_766" x="0.0316179" y="0.831667" width="63.3265" height="51.7403" filterUnits="userSpaceOnUse" color-interpolation-filters="sRGB">
<feFlood flood-opacity="0" result="BackgroundImageFix"/>
<feColorMatrix in="SourceAlpha" type="matrix" values="0 0 0 0 0 0 0 0 0 0 0 0 0 0 0 0 0 0 127 0" result="hardAlpha"/>
<feOffset dx="3.70182" dy="3.70182"/>
<feGaussianBlur stdDeviation="6.47818"/>
<feColorMatrix type="matrix" values="0 0 0 0 0 0 0 0 0 0 0 0 0 0 0 0 0 0 0.25 0"/>
<feBlend mode="normal" in2="BackgroundImageFix" result="effect1_dropShadow_126_766"/>
<feBlend mode="normal" in="SourceGraphic" in2="effect1_dropShadow_126_766" result="shape"/>
</filter>
<linearGradient id="paint0_linear_126_766" x1="9.49936" y1="10.3514" x2="40.2865" y2="41.6233" gradientUnits="userSpaceOnUse">
<stop stop-color="white"/>
<stop offset="0.333333" stop-color="#C4C4C4"/>
<stop offset="0.669618" stop-color="#F8F8F8"/>
<stop offset="1" stop-color="#C4C4C4"/>
</linearGradient>
<linearGradient id="paint1_linear_126_766" x1="9.49936" y1="10.3514" x2="40.2865" y2="41.6233" gradientUnits="userSpaceOnUse">
<stop stop-color="white"/>
<stop offset="0.333333" stop-color="#C4C4C4"/>
<stop offset="0.669618" stop-color="#F8F8F8"/>
<stop offset="1" stop-color="#C4C4C4"/>
</linearGradient>
</defs>
</svg>
