<svg width="287" height="186" viewBox="0 0 287 186" fill="none" xmlns="http://www.w3.org/2000/svg">
<path opacity="0.2" d="M4.0495 8.304C2.9455 8.304 2.2855 7.308 2.1535 5.484C2.7295 4.668 3.4015 4.356 3.9535 4.356C5.0215 4.356 5.5375 5.112 5.5375 6.3C5.5375 7.5 4.8895 8.304 4.0495 8.304ZM6.4135 0.935999C5.9335 0.42 5.2735 0.0359995 4.3615 0.0359995C2.6575 0.0359995 1.1095 1.356 1.1095 4.8C1.1095 7.704 2.3575 9.156 4.0495 9.156C5.4175 9.156 6.5695 8.004 6.5695 6.3C6.5695 4.464 5.6215 3.54 4.1335 3.54C3.4375 3.54 2.6695 3.948 2.1295 4.608C2.1775 1.872 3.1975 0.948 4.3975 0.948C4.9375 0.948 5.4655 1.2 5.8135 1.62L6.4135 0.935999ZM10.4298 9.156C12.0978 9.156 13.1658 7.632 13.1658 4.572C13.1658 1.524 12.0978 0.0359995 10.4298 0.0359995C8.74975 0.0359995 7.68175 1.512 7.68175 4.572C7.68175 7.632 8.74975 9.156 10.4298 9.156ZM10.4298 8.28C9.42175 8.28 8.74975 7.164 8.74975 4.572C8.74975 2.004 9.42175 0.924 10.4298 0.924C11.4258 0.924 12.0978 2.004 12.0978 4.572C12.0978 7.164 11.4258 8.28 10.4298 8.28Z" fill="white" fill-opacity="0.6"/>
<path d="M21.75 4.27344H284.797" stroke="white" stroke-opacity="0.2" stroke-width="0.546875" stroke-dasharray="1.09 1.09"/>
<path opacity="0.2" d="M3.5695 38.2315C5.0575 38.2315 6.4495 37.1395 6.4495 35.2075C6.4495 33.2755 5.2615 32.4115 3.7975 32.4115C3.2695 32.4115 2.8735 32.5435 2.4895 32.7595L2.7055 30.2155H6.0295V29.2795H1.7455L1.4695 33.3955L2.0575 33.7555C2.5615 33.4195 2.9335 33.2395 3.5215 33.2395C4.6255 33.2395 5.3455 33.9835 5.3455 35.2435C5.3455 36.5275 4.5055 37.3195 3.4735 37.3195C2.4535 37.3195 1.8175 36.8515 1.3135 36.3475L0.7735 37.0675C1.3615 37.6555 2.2015 38.2315 3.5695 38.2315ZM10.4298 38.2315C12.0978 38.2315 13.1658 36.7075 13.1658 33.6475C13.1658 30.5995 12.0978 29.1115 10.4298 29.1115C8.74975 29.1115 7.68175 30.5875 7.68175 33.6475C7.68175 36.7075 8.74975 38.2315 10.4298 38.2315ZM10.4298 37.3555C9.42175 37.3555 8.74975 36.2395 8.74975 33.6475C8.74975 31.0795 9.42175 29.9995 10.4298 29.9995C11.4258 29.9995 12.0978 31.0795 12.0978 33.6475C12.0978 36.2395 11.4258 37.3555 10.4298 37.3555Z" fill="white" fill-opacity="0.6"/>
<path d="M21.75 33.3489H284.797" stroke="white" stroke-opacity="0.2" stroke-width="0.546875" stroke-dasharray="1.09 1.09"/>
<path opacity="0.2" d="M1.8175 63.8511L3.8215 60.8511C4.0735 60.4191 4.3135 59.9871 4.5295 59.5551H4.5775C4.5535 60.0111 4.5055 60.7191 4.5055 61.1511V63.8511H1.8175ZM6.7135 63.8511H5.5495V58.3551H4.3375L0.6775 64.0071V64.7271H4.5055V67.1511H5.5495V64.7271H6.7135V63.8511ZM10.4298 67.3071C12.0978 67.3071 13.1658 65.7831 13.1658 62.7231C13.1658 59.6751 12.0978 58.1871 10.4298 58.1871C8.74975 58.1871 7.68175 59.6631 7.68175 62.7231C7.68175 65.7831 8.74975 67.3071 10.4298 67.3071ZM10.4298 66.4311C9.42175 66.4311 8.74975 65.3151 8.74975 62.7231C8.74975 60.1551 9.42175 59.0751 10.4298 59.0751C11.4258 59.0751 12.0978 60.1551 12.0978 62.7231C12.0978 65.3151 11.4258 66.4311 10.4298 66.4311Z" fill="white" fill-opacity="0.6"/>
<path d="M21.75 62.4245H284.797" stroke="white" stroke-opacity="0.2" stroke-width="0.546875" stroke-dasharray="1.09 1.09"/>
<path opacity="0.2" d="M3.6055 96.3826C5.1655 96.3826 6.4255 95.4466 6.4255 93.8746C6.4255 92.6746 5.5975 91.8826 4.5535 91.6426V91.5946C5.4895 91.2466 6.1255 90.5386 6.1255 89.4706C6.1255 88.0546 5.0455 87.2626 3.5695 87.2626C2.5495 87.2626 1.7695 87.7066 1.1095 88.3186L1.6975 89.0146C2.1895 88.5226 2.8135 88.1626 3.5215 88.1386C4.4335 88.1626 5.0095 88.7026 5.0095 89.5546C5.0095 90.5026 4.3855 91.2346 2.5735 91.2346V92.0746C4.6015 92.0746 5.3095 92.7826 5.3095 93.8386C5.3095 94.8466 4.5655 95.4706 3.5215 95.4706C2.5255 95.4706 1.8535 95.0026 1.3375 94.4626L0.7855 95.1826C1.3615 95.8066 2.2255 96.3826 3.6055 96.3826ZM10.4298 96.3826C12.0978 96.3826 13.1658 94.8586 13.1658 91.7986C13.1658 88.7506 12.0978 87.2626 10.4298 87.2626C8.74975 87.2626 7.68175 88.7386 7.68175 91.7986C7.68175 94.8586 8.74975 96.3826 10.4298 96.3826ZM10.4298 95.5066C9.42175 95.5066 8.74975 94.3906 8.74975 91.7986C8.74975 89.2306 9.42175 88.1506 10.4298 88.1506C11.4258 88.1506 12.0978 89.2306 12.0978 91.7986C12.0978 94.3906 11.4258 95.5066 10.4298 95.5066Z" fill="white" fill-opacity="0.6"/>
<path d="M21.75 91.5H284.797" stroke="white" stroke-opacity="0.2" stroke-width="0.546875" stroke-dasharray="1.09 1.09"/>
<path opacity="0.2" d="M0.9655 125.302H6.4975V124.354H4.0615C3.6175 124.354 3.0775 124.402 2.6215 124.438C4.6855 122.482 6.0655 120.694 6.0655 118.942C6.0655 117.37 5.0815 116.338 3.5095 116.338C2.3935 116.338 1.6375 116.854 0.9175 117.634L1.5535 118.258C2.0335 117.682 2.6575 117.238 3.3775 117.238C4.4695 117.238 4.9975 117.97 4.9975 118.978C4.9975 120.49 3.7255 122.242 0.9655 124.654V125.302ZM10.4298 125.458C12.0978 125.458 13.1658 123.934 13.1658 120.874C13.1658 117.826 12.0978 116.338 10.4298 116.338C8.74975 116.338 7.68175 117.814 7.68175 120.874C7.68175 123.934 8.74975 125.458 10.4298 125.458ZM10.4298 124.582C9.42175 124.582 8.74975 123.466 8.74975 120.874C8.74975 118.306 9.42175 117.226 10.4298 117.226C11.4258 117.226 12.0978 118.306 12.0978 120.874C12.0978 123.466 11.4258 124.582 10.4298 124.582Z" fill="white" fill-opacity="0.6"/>
<path d="M21.75 120.576H284.797" stroke="white" stroke-opacity="0.2" stroke-width="0.546875" stroke-dasharray="1.09 1.09"/>
<path opacity="0.2" d="M1.4935 154.378H6.3175V153.466H4.5535V145.582H3.7135C3.2335 145.858 2.6695 146.062 1.8895 146.206V146.902H3.4495V153.466H1.4935V154.378ZM10.4298 154.534C12.0978 154.534 13.1658 153.01 13.1658 149.95C13.1658 146.902 12.0978 145.414 10.4298 145.414C8.74975 145.414 7.68175 146.89 7.68175 149.95C7.68175 153.01 8.74975 154.534 10.4298 154.534ZM10.4298 153.658C9.42175 153.658 8.74975 152.542 8.74975 149.95C8.74975 147.382 9.42175 146.302 10.4298 146.302C11.4258 146.302 12.0978 147.382 12.0978 149.95C12.0978 152.542 11.4258 153.658 10.4298 153.658Z" fill="white" fill-opacity="0.6"/>
<path d="M21.75 149.651H284.797" stroke="white" stroke-opacity="0.2" stroke-width="0.546875" stroke-dasharray="1.09 1.09"/>
<path opacity="0.2" d="M12.8673 185.072C14.5353 185.072 15.6033 183.548 15.6033 180.488C15.6033 177.44 14.5353 175.952 12.8673 175.952C11.1873 175.952 10.1193 177.428 10.1193 180.488C10.1193 183.548 11.1873 185.072 12.8673 185.072ZM12.8673 184.196C11.8593 184.196 11.1873 183.08 11.1873 180.488C11.1873 177.92 11.8593 176.84 12.8673 176.84C13.8633 176.84 14.5353 177.92 14.5353 180.488C14.5353 183.08 13.8633 184.196 12.8673 184.196Z" fill="white" fill-opacity="0.6"/>
<rect opacity="0.23" x="21.75" y="178.453" width="263" height="0.546875" fill="white" fill-opacity="0.4"/>
<path d="M21.75 130.875L50.7344 154.937L79.7188 137.437L108.703 98.0624L138.234 104.625L167.219 124.312L196.203 89.039L225.188 93.6874L254.172 42.5546L283.703 30.2499" stroke="#974AF4" stroke-width="0.546875"/>
<circle opacity="0.2" cx="21.4688" cy="130.594" r="3.28125" fill="#974AF4"/>
<circle cx="21.4688" cy="130.594" r="1.64062" fill="#974AF4"/>
<circle opacity="0.2" cx="50.4531" cy="154.656" r="3.28125" fill="#974AF4"/>
<circle cx="50.4531" cy="154.656" r="1.64062" fill="#974AF4"/>
<circle opacity="0.2" cx="79.4375" cy="137.156" r="3.28125" fill="#974AF4"/>
<circle cx="79.4375" cy="137.156" r="1.64062" fill="#974AF4"/>
<circle opacity="0.2" cx="108.422" cy="97.7812" r="3.28125" fill="#974AF4"/>
<circle cx="108.422" cy="97.7812" r="1.64062" fill="#974AF4"/>
<circle opacity="0.2" cx="137.953" cy="104.344" r="3.28125" fill="#974AF4"/>
<circle cx="137.953" cy="104.344" r="1.64062" fill="#974AF4"/>
<circle opacity="0.2" cx="166.938" cy="124.031" r="3.28125" fill="#974AF4"/>
<circle cx="166.938" cy="124.031" r="1.64062" fill="#974AF4"/>
<circle opacity="0.2" cx="195.922" cy="89.0312" r="3.28125" fill="#974AF4"/>
<circle cx="195.922" cy="89.0312" r="1.64062" fill="#974AF4"/>
<circle opacity="0.2" cx="225.453" cy="93.4062" r="3.28125" fill="#974AF4"/>
<circle cx="225.453" cy="93.4062" r="1.64062" fill="#974AF4"/>
<circle opacity="0.2" cx="253.891" cy="42.5469" r="3.28125" fill="#974AF4"/>
<circle cx="253.891" cy="42.5469" r="1.64062" fill="#974AF4"/>
<circle opacity="0.2" cx="283.422" cy="29.9688" r="3.28125" fill="#974AF4"/>
<circle cx="283.422" cy="29.9688" r="1.64062" fill="#974AF4"/>
</svg>
