<svg width="309" height="160" viewBox="0 0 309 160" fill="none" xmlns="http://www.w3.org/2000/svg">
<g clip-path="url(#clip0_1540_1865)">
<path d="M302.128 26.8085H5.31915V120.426H302.128V26.8085Z" stroke="#475160" stroke-width="0.531915" stroke-linecap="round" stroke-dasharray="4.26 4.26"/>
<path d="M8.51065 21.4894H3.1915C2.01643 21.4894 1.06384 22.442 1.06384 23.617V28.9362C1.06384 30.1113 2.01643 31.0638 3.1915 31.0638H8.51065C9.68573 31.0638 10.6383 30.1113 10.6383 28.9362V23.617C10.6383 22.442 9.68573 21.4894 8.51065 21.4894Z" fill="#0D0A1D" stroke="#475160" stroke-width="0.531915"/>
<path d="M304.255 21.4894H298.936C297.761 21.4894 296.809 22.442 296.809 23.617V28.9362C296.809 30.1113 297.761 31.0638 298.936 31.0638H304.255C305.43 31.0638 306.383 30.1113 306.383 28.9362V23.617C306.383 22.442 305.43 21.4894 304.255 21.4894Z" fill="#0D0A1D" stroke="#475160" stroke-width="0.531915"/>
<path d="M8.51065 115.106H3.1915C2.01643 115.106 1.06384 116.059 1.06384 117.234V122.553C1.06384 123.728 2.01643 124.681 3.1915 124.681H8.51065C9.68573 124.681 10.6383 123.728 10.6383 122.553V117.234C10.6383 116.059 9.68573 115.106 8.51065 115.106Z" fill="#0D0A1D" stroke="#475160" stroke-width="0.531915"/>
<path d="M304.255 115.106H298.936C297.761 115.106 296.809 116.059 296.809 117.234V122.553C296.809 123.728 297.761 124.681 298.936 124.681H304.255C305.43 124.681 306.383 123.728 306.383 122.553V117.234C306.383 116.059 305.43 115.106 304.255 115.106Z" fill="#0D0A1D" stroke="#475160" stroke-width="0.531915"/>
<path d="M245.389 10.8511H63.4745C59.9492 10.8511 57.0915 13.7088 57.0915 17.2341V40.6383C57.0915 44.1635 59.9492 47.0213 63.4745 47.0213H245.389C248.915 47.0213 251.772 44.1635 251.772 40.6383V17.2341C251.772 13.7088 248.915 10.8511 245.389 10.8511Z" fill="#0D0A1D"/>
<path d="M245.389 11.117H63.4744C60.0961 11.117 57.3574 13.8557 57.3574 17.234V40.6383C57.3574 44.0166 60.0961 46.7553 63.4744 46.7553H245.389C248.768 46.7553 251.506 44.0166 251.506 40.6383V17.234C251.506 13.8557 248.768 11.117 245.389 11.117Z" stroke="#475160" stroke-width="0.531915"/>
<path d="M68.7936 32.1277C70.5562 32.1277 71.9851 30.6988 71.9851 28.9362C71.9851 27.1736 70.5562 25.7447 68.7936 25.7447C67.031 25.7447 65.6021 27.1736 65.6021 28.9362C65.6021 30.6988 67.031 32.1277 68.7936 32.1277Z" fill="#475160"/>
<path d="M79.4319 32.1277C81.1945 32.1277 82.6234 30.6988 82.6234 28.9362C82.6234 27.1736 81.1945 25.7447 79.4319 25.7447C77.6693 25.7447 76.2404 27.1736 76.2404 28.9362C76.2404 30.6988 77.6693 32.1277 79.4319 32.1277Z" fill="#475160"/>
<path d="M90.0702 32.1277C91.8328 32.1277 93.2617 30.6988 93.2617 28.9362C93.2617 27.1736 91.8328 25.7447 90.0702 25.7447C88.3076 25.7447 86.8787 27.1736 86.8787 28.9362C86.8787 30.6988 88.3076 32.1277 90.0702 32.1277Z" fill="#475160"/>
<path d="M235.815 36.9149C240.221 36.9149 243.794 33.3427 243.794 28.9362C243.794 24.5297 240.221 20.9575 235.815 20.9575C231.408 20.9575 227.836 24.5297 227.836 28.9362C227.836 33.3427 231.408 36.9149 235.815 36.9149Z" fill="#475160" stroke="#0D0A1D" stroke-width="1.06383"/>
<path d="M226.24 36.9149C230.647 36.9149 234.219 33.3427 234.219 28.9362C234.219 24.5297 230.647 20.9575 226.24 20.9575C221.834 20.9575 218.262 24.5297 218.262 28.9362C218.262 33.3427 221.834 36.9149 226.24 36.9149Z" fill="#6F7988" stroke="#0D0A1D" stroke-width="1.06383"/>
<path d="M216.666 36.9149C221.073 36.9149 224.645 33.3427 224.645 28.9362C224.645 24.5297 221.073 20.9575 216.666 20.9575C212.259 20.9575 208.687 24.5297 208.687 28.9362C208.687 33.3427 212.259 36.9149 216.666 36.9149Z" fill="#475160" stroke="#0D0A1D" stroke-width="1.06383"/>
<path d="M98.9362 54.4681H63.8298C60.3046 54.4681 57.4468 57.3258 57.4468 60.8511V128.936C57.4468 132.461 60.3046 135.319 63.8298 135.319H98.9362C102.461 135.319 105.319 132.461 105.319 128.936V60.8511C105.319 57.3258 102.461 54.4681 98.9362 54.4681Z" fill="#0D0A1D"/>
<path d="M98.9362 54.734H63.8298C60.4515 54.734 57.7128 57.4727 57.7128 60.851V128.936C57.7128 132.314 60.4515 135.053 63.8298 135.053H98.9362C102.315 135.053 105.053 132.314 105.053 128.936V60.851C105.053 57.4727 102.315 54.734 98.9362 54.734Z" stroke="#475160" stroke-width="0.531915"/>
<path d="M245.745 54.4681H121.277C117.751 54.4681 114.894 57.3258 114.894 60.8511V128.936C114.894 132.461 117.751 135.319 121.277 135.319H245.745C249.27 135.319 252.128 132.461 252.128 128.936V60.8511C252.128 57.3258 249.27 54.4681 245.745 54.4681Z" fill="#0D0A1D"/>
<path d="M245.745 54.734H121.277C117.898 54.734 115.16 57.4727 115.16 60.851V128.936C115.16 132.314 117.898 135.053 121.277 135.053H245.745C249.123 135.053 251.862 132.314 251.862 128.936V60.851C251.862 57.4727 249.123 54.734 245.745 54.734Z" stroke="#475160" stroke-width="0.531915"/>
<path d="M221.985 116.17H151.772C150.01 116.17 148.581 117.599 148.581 119.362C148.581 121.124 150.01 122.553 151.772 122.553H221.985C223.748 122.553 225.177 121.124 225.177 119.362C225.177 117.599 223.748 116.17 221.985 116.17Z" fill="#475160"/>
<path d="M126.24 119.933L131.288 114.22V118.79H134.568L129.161 124.504V119.933H126.24Z" fill="#974AF4" stroke="#974AF4" stroke-width="1.2766" stroke-linecap="round" stroke-linejoin="round"/>
<path d="M176.24 91.7021H151.772C150.01 91.7021 148.581 93.131 148.581 94.8936C148.581 96.6562 150.01 98.0851 151.772 98.0851H176.24C178.003 98.0851 179.432 96.6562 179.432 94.8936C179.432 93.131 178.003 91.7021 176.24 91.7021Z" fill="#475160"/>
<path d="M125.355 100.035L128.369 99.3261L134.961 92.7354C135.237 92.4585 135.237 92.0093 134.961 91.7324L133.658 90.4304C133.381 90.1535 132.932 90.1535 132.655 90.4304L126.065 97.0211L125.355 100.035Z" fill="#9098A0" stroke="#9098A0" stroke-width="1.2766" stroke-linecap="round" stroke-linejoin="round"/>
<path d="M135.639 100.035H131.738" stroke="#9098A0" stroke-width="1.2766" stroke-linecap="round" stroke-linejoin="round"/>
<path d="M193.262 67.2341H151.772C150.01 67.2341 148.581 68.6629 148.581 70.4256C148.581 72.1882 150.01 73.617 151.772 73.617H193.262C195.024 73.617 196.453 72.1882 196.453 70.4256C196.453 68.6629 195.024 67.2341 193.262 67.2341Z" fill="#475160"/>
<path d="M132.799 67.5891C132.799 68.862 131.767 69.8939 130.495 69.8939C129.221 69.8939 128.189 68.862 128.189 67.5891C128.189 66.316 129.221 65.2841 130.495 65.2841C131.767 65.2841 132.799 66.316 132.799 67.5891Z" fill="#974AF4" stroke="#974AF4" stroke-width="1.2766" stroke-linecap="round" stroke-linejoin="round"/>
<path d="M126.84 75.567H134.149C134.958 75.567 135.582 74.8707 135.204 74.1546C134.648 73.1011 133.38 71.8436 130.495 71.8436C127.61 71.8436 126.34 73.1011 125.784 74.1546C125.406 74.8707 126.03 75.567 126.84 75.567Z" fill="#974AF4" stroke="#974AF4" stroke-width="1.2766" stroke-linecap="round" stroke-linejoin="round"/>
</g>
<defs>
<clipPath id="clip0_1540_1865">
<rect width="308.511" height="159.574" fill="white" transform="translate(0 0.212769)"/>
</clipPath>
</defs>
</svg>
