<svg width="552" height="72" viewBox="0 0 552 72" fill="none" xmlns="http://www.w3.org/2000/svg">
<path d="M72.8174 70.3428H0.343445V61.4324C0.343445 56.7324 3.67333 53.4032 8.2764 52.6199L63.905 52.522C63.905 50.0741 63.905 47.6261 63.905 45.0803H0.343445V10.9074C0.343445 6.01158 4.26095 1.997 9.25578 1.997H81.7297V10.9074C81.7297 16.3907 77.1266 19.8178 72.8174 19.8178C51.2711 19.8178 39.7144 19.8178 18.1681 19.8178C18.1681 22.3637 18.1681 24.8116 18.1681 27.2595H81.7297V61.4324C81.7297 66.3282 77.7143 70.3428 72.8174 70.3428Z" fill="white"/>
<path d="M123.203 2.09492H161.497C166.394 2.09492 170.409 6.1095 170.409 11.0053V19.9157C154.739 19.9157 138.971 19.9157 123.203 19.9157C113.899 19.9157 107.337 27.3574 106.848 35.3866C106.064 46.9407 114.879 52.1303 125.26 52.7178H161.497C166.394 52.7178 170.409 56.7324 170.409 61.824V70.6365C154.739 70.6365 138.971 70.6365 123.203 70.6365C104.399 70.6365 89.023 55.2636 89.023 36.4636C88.9251 17.8595 104.007 2.09492 123.203 2.09492Z" fill="white"/>
<path d="M178.227 11.0053C178.227 6.30534 182.145 2.09492 186.846 2.09492H196.052V61.7261C196.052 66.1324 192.33 70.3428 187.825 70.5386L178.227 70.6365V11.0053Z" fill="white"/>
<path d="M205.94 70.6365C205.94 56.1449 205.94 41.8491 205.94 27.4553H276.651C281.548 27.4553 285.563 31.372 285.563 36.3657V45.2761H223.765V52.7178H276.651C281.548 52.7178 285.563 56.7324 285.563 61.7261V70.6365C259.022 70.6365 232.481 70.6365 205.94 70.6365ZM205.94 19.9157C205.94 13.9428 205.94 7.96991 205.94 2.09492H276.651C281.548 2.09492 285.563 6.1095 285.563 11.0053V19.9157C259.022 19.9157 232.481 19.9157 205.94 19.9157Z" fill="white"/>
<path d="M364.63 71.7136C361.104 71.7136 358.949 70.6365 356.109 67.9928L312.723 28.9241V62.8032C312.723 67.699 308.707 71.7136 303.81 71.7136H294.898V13.747C294.898 6.30534 298.816 0.919922 306.455 0.919922C309.883 0.919922 312.135 2.09492 314.975 4.64075L358.46 43.7095V9.83033C358.46 4.9345 362.475 0.919922 367.372 0.919922H376.284V58.7886C376.284 66.3282 372.269 71.7136 364.63 71.7136Z" fill="white"/>
<path d="M418.038 2.09492H456.332C461.228 2.09492 465.244 6.1095 465.244 11.0053V19.9157C449.574 19.9157 433.806 19.9157 418.038 19.9157C408.734 19.9157 402.172 27.3574 401.682 35.3866C400.899 46.9407 409.713 52.1303 420.095 52.7178H456.332C461.228 52.7178 465.244 56.7324 465.244 61.824V70.6365C449.574 70.6365 433.806 70.6365 418.038 70.6365C399.234 70.6365 383.858 55.2636 383.858 36.4636C383.76 17.8595 398.842 2.09492 418.038 2.09492Z" fill="white"/>
<path d="M472.377 70.6365C472.377 56.1449 472.377 41.8491 472.377 27.4553H543.088C547.984 27.4553 552 31.372 552 36.3657V45.2761H490.201V52.7178H543.088C547.984 52.7178 552 56.7324 552 61.7261V70.6365C525.459 70.6365 498.918 70.6365 472.377 70.6365ZM472.377 19.9157C472.377 13.9428 472.377 7.96991 472.377 2.09492H543.088C547.984 2.09492 552 6.1095 552 11.0053V19.9157C525.459 19.9157 498.918 19.9157 472.377 19.9157Z" fill="white"/>
</svg>
