<svg width="89" height="89" viewBox="0 0 89 89" fill="none" xmlns="http://www.w3.org/2000/svg">
<rect x="2" y="1" width="86" height="86" rx="43" fill="white" fill-opacity="0.02"/>
<rect x="14.2857" y="13.2858" width="61.4286" height="61.4286" rx="30.7143" fill="white" fill-opacity="0.01"/>
<rect x="14.2857" y="13.2858" width="61.4286" height="61.4286" rx="30.7143" fill="url(#paint0_linear_1540_4653)"/>
<mask id="mask0_1540_4653" style="mask-type:alpha" maskUnits="userSpaceOnUse" x="14" y="13" width="62" height="62">
<rect x="14.2857" y="13.2858" width="61.4286" height="61.4286" fill="white"/>
</mask>
<g mask="url(#mask0_1540_4653)">
<g filter="url(#filter0_i_1540_4653)">
<rect x="14.2857" y="13.2858" width="61.4286" height="61.4286" rx="30.7143" fill="#712FFF" fill-opacity="0.12"/>
<rect x="14.2857" y="13.2858" width="61.4286" height="61.4286" rx="30.7143" fill="url(#paint1_linear_1540_4653)"/>
</g>
</g>
<path d="M49.5313 42.1614C50.575 42.7486 50.575 44.2513 49.5313 44.8385L41.9137 49.1234C40.89 49.6992 39.6251 48.9594 39.6251 47.7848V39.2151C39.6251 38.0405 40.89 37.3007 41.9137 37.8766L49.5313 42.1614Z" fill="white"/>
<g clip-path="url(#clip0_1540_4653)">
<path d="M63.4039 11.2273C63.0572 11.232 62.4346 11.1 61.72 10.7556C60.0667 9.95364 59.3286 8.30728 60.2601 6.3826C61.1493 4.54755 62.9983 3.90599 64.8166 4.78578C65.5477 5.13958 65.9322 5.51933 66.0831 5.72217L65.602 6.25052C65.3826 5.97219 65.0242 5.67028 64.536 5.43205C63.161 4.76455 61.8214 5.2009 61.0738 6.74112C60.3781 8.17756 60.7578 9.50077 62.1846 10.1919C62.6469 10.4159 63.161 10.548 63.5384 10.548L63.4039 11.225V11.2273Z" fill="white"/>
<path d="M70.1538 12.6425C70.642 11.876 71.2316 10.9514 71.7127 10.298L71.6891 10.2815C71.0641 10.7745 70.3708 11.2768 69.5807 11.817L66.8048 13.7204L66.286 13.3501L67.2341 10.2107C67.5171 9.28377 67.793 8.44644 68.0949 7.71053L68.0784 7.69873C67.5902 8.34737 66.9157 9.20829 66.3001 9.97014L64.5337 12.1425L63.8804 11.6755L68.0406 6.63733L68.9133 7.26238L67.984 10.4749C67.7364 11.2863 67.5029 11.9962 67.2411 12.6425L67.2647 12.659C67.7812 12.2203 68.385 11.7722 69.0996 11.2721L71.8778 9.38283L72.7504 10.0079L69.2906 15.5461L68.6208 15.0672L70.1514 12.6425H70.1538Z" fill="white"/>
<path d="M76.2834 17.9567C74.6702 19.5157 72.8684 19.3624 71.7127 18.1666C70.517 16.9283 70.6373 15.1333 72.0547 13.7606C73.5429 12.3218 75.4084 12.3076 76.6183 13.5577C77.8541 14.8361 77.6748 16.6122 76.2834 17.9567ZM72.6938 14.3951C71.6915 15.3621 71.3189 16.7726 72.241 17.7255C73.1679 18.6855 74.5759 18.3741 75.6395 17.3458C76.5711 16.4447 77.0734 15.0177 76.0994 14.0106C75.1324 13.0082 73.7245 13.4021 72.6938 14.3974V14.3951Z" fill="white"/>
<path d="M79.7597 18.5439L78.5994 16.9377L79.1796 16.5178L82.0073 20.4285L81.4271 20.8484L80.2597 19.2327L75.557 22.6315L75.0594 21.9428L79.7621 18.5439H79.7597Z" fill="white"/>
<path d="M82.6252 21.6267C82.8799 21.9499 83.1865 22.3886 83.5096 22.983C83.9082 23.7118 84.0308 24.3392 83.9105 24.8463C83.8115 25.3086 83.4978 25.7214 82.9884 25.9997C82.4719 26.2828 81.979 26.3512 81.5261 26.2262C80.8964 26.0634 80.3375 25.5422 79.9436 24.8204C79.8234 24.5987 79.7196 24.3911 79.6701 24.1977L77.38 25.4502L76.9767 24.7119L82.6275 21.6244L82.6252 21.6267ZM80.2715 23.8722C80.3163 24.0562 80.4106 24.2685 80.545 24.5161C81.0309 25.4077 81.762 25.7143 82.5497 25.2827C83.3044 24.8699 83.3775 24.1364 82.9318 23.3226C82.7549 22.9995 82.5969 22.7683 82.4931 22.6598L80.2691 23.8746L80.2715 23.8722Z" fill="white"/>
<path d="M83.3398 31.1133L82.4129 28.7546L80.2267 29.6156L81.2596 32.2431L80.6017 32.5002L79.2597 29.0896L85.3256 26.705L86.6133 29.9812L85.9553 30.2406L84.9765 27.7475L83.0591 28.5023L83.986 30.8609L83.3374 31.1157L83.3398 31.1133Z" fill="white"/>
<path d="M86.8019 33.1724L86.309 31.2525L87.0024 31.0756L88.2028 35.7505L87.5094 35.9274L87.0142 33.998L81.394 35.4415L81.1818 34.6159L86.8019 33.1724Z" fill="white"/>
<path d="M88.526 37.9181L86.1086 38.2177C86.1605 38.4064 86.2289 38.7885 86.2548 39.0079C86.4199 40.3334 85.9789 41.5765 84.5497 41.7534C83.9459 41.8288 83.4789 41.692 83.1063 41.4255C82.4837 40.9656 82.17 40.0905 82.0592 39.1965C81.986 38.6116 81.9695 38.1658 81.9743 37.8804L88.4246 37.0808L88.5283 37.9158L88.526 37.9181ZM82.7007 38.6423C82.6865 38.838 82.7007 39.0503 82.7384 39.3404C82.854 40.2721 83.4035 41.0127 84.3916 40.8901C85.4081 40.7627 85.6911 39.8994 85.5779 38.9795C85.552 38.7673 85.5001 38.5125 85.4459 38.305L82.7007 38.6446V38.6423Z" fill="white"/>
<path d="M88.941 45.2677C88.9976 45.638 89.0188 46.2206 88.9858 46.8103C88.9363 47.65 88.7594 48.1831 88.4056 48.5675C88.1344 48.8907 87.7359 49.0699 87.2264 49.0393C86.5991 49.0015 86.0732 48.5534 85.8633 47.8552H85.8444C85.6534 48.4637 85.0991 49.1572 84.1345 49.0982C83.5756 49.0652 83.1629 48.8175 82.8633 48.4708C82.4742 47.992 82.3256 47.2467 82.3893 46.1853C82.4247 45.605 82.4883 45.1639 82.545 44.8856L88.9434 45.2654L88.941 45.2677ZM83.111 45.7654C83.0732 45.9282 83.0473 46.1687 83.0308 46.4683C82.9789 47.3363 83.2501 48.1571 84.1959 48.2137C85.0826 48.2656 85.4953 47.525 85.5496 46.6075L85.5897 45.9116L83.1086 45.7654H83.111ZM86.2288 45.9494L86.184 46.7112C86.1321 47.6005 86.5637 48.1477 87.1911 48.1854C87.9528 48.2302 88.2877 47.6689 88.3373 46.8197C88.3608 46.4329 88.3443 46.2088 88.3231 46.072L86.2288 45.947V45.9494Z" fill="white"/>
<path d="M88.3938 52.0017L85.7052 51.4404C84.6935 51.2281 83.8633 51.037 83.0237 50.8012L83.0095 50.8177C83.6039 51.2776 84.2123 51.8201 84.8727 52.4404L87.7264 55.1907L87.5542 56.0138L81.1747 54.6812L81.3374 53.9052L84.0543 54.4713C85.085 54.6859 85.842 54.8534 86.6321 55.0892L86.6486 55.0633C86.0142 54.6057 85.3656 54.016 84.7477 53.4311L81.9931 50.7729L82.177 49.8931L88.5566 51.2257L88.3938 52.0017Z" fill="white"/>
<path d="M85.3209 62.3399L79.8753 60.2619L79.6536 60.7879L77.5876 59.9364L77.8211 59.3232L79.3045 59.8279L80.7691 55.988L79.3257 55.3747L79.5592 54.7615L81.6653 55.5045L81.5073 55.9715C81.8375 56.3559 82.1936 56.7498 82.6157 57.0777C83.2407 57.5542 84.0237 57.9457 85.0709 58.3467L86.6156 58.9363L85.3162 62.3423L85.3209 62.3399ZM84.5449 58.9788C83.5686 58.6061 82.7832 58.2028 82.1771 57.724C81.8021 57.4362 81.4672 57.0895 81.2101 56.7852L80.1819 59.4765L84.9695 61.3044L85.6888 59.4175L84.5426 58.9788H84.5449Z" fill="white"/>
<path d="M79.6583 65.7222L80.8776 63.5004L78.8187 62.3682L77.4579 64.8425L76.84 64.5028L78.6041 61.2903L84.3162 64.4297L82.6205 67.5148L82.0026 67.1752L83.2926 64.8283L81.4884 63.8353L80.2691 66.0548L79.6583 65.7199V65.7222Z" fill="white"/>
<path d="M75.7032 71.7062C73.9132 70.3547 73.7835 68.5479 74.7858 67.2223C75.8235 65.8472 77.6159 65.6868 79.1913 66.8756C80.8422 68.1233 81.1488 69.9655 80.0993 71.3547C79.0262 72.7747 77.2456 72.8714 75.7009 71.7062H75.7032ZM78.6654 67.6044C77.5546 66.7647 76.1041 66.6162 75.3046 67.6728C74.5004 68.739 75.0263 70.081 76.2079 70.9726C77.2433 71.7534 78.7314 72.0293 79.5758 70.9089C80.4154 69.798 79.8069 68.4677 78.6654 67.6044Z" fill="white"/>
<path d="M64.503 77.1052C64.6658 76.8009 65.0832 76.3174 65.7294 75.8598C67.2294 74.7984 69.0289 74.9494 70.2623 76.6948C71.4392 78.36 71.109 80.2894 69.4581 81.4546C68.7954 81.924 68.2765 82.0773 68.0265 82.1103L67.7954 81.4334C68.1444 81.3744 68.5831 81.2069 69.0241 80.8956C70.2718 80.0135 70.5382 78.6289 69.5501 77.2326C68.6303 75.9306 67.2883 75.624 65.9936 76.5391C65.5761 76.834 65.2106 77.2231 65.029 77.5533L64.5007 77.1099L64.503 77.1052Z" fill="white"/>
<path d="M60.0031 82.3344C60.4394 83.134 60.963 84.094 61.3049 84.8323L61.3309 84.8205C61.2012 84.035 61.095 83.1859 61.0054 82.233L60.6799 78.8837L61.2554 78.6077L63.5454 80.9546C64.2199 81.6504 64.819 82.2967 65.319 82.9147L65.3355 82.9052C65.0029 82.1646 64.5737 81.1575 64.2058 80.2517L63.1587 77.6548L63.8827 77.3081L66.2836 83.3841L65.3143 83.8464L62.9511 81.483C62.3615 80.8768 61.8521 80.3272 61.4111 79.7871L61.3851 79.7989C61.5195 80.464 61.621 81.2094 61.7129 82.075L62.0266 85.4196L61.0573 85.8819L57.8805 80.1763L58.621 79.8225L60.0031 82.3344Z" fill="white"/>
<path d="M52.3831 85.1223C51.8029 82.9547 52.8099 81.4546 54.416 81.0229C56.0787 80.5771 57.5905 81.5536 58.1023 83.4571C58.6376 85.4549 57.7461 87.0965 56.0669 87.547C54.3476 88.007 52.8831 86.988 52.3831 85.1223ZM57.2391 83.7095C56.8782 82.365 55.8264 81.3555 54.5481 81.6975C53.2604 82.0442 52.85 83.4241 53.2321 84.8534C53.567 86.1059 54.5717 87.238 55.9254 86.8748C57.2697 86.5139 57.6094 85.0916 57.2391 83.7095Z" fill="white"/>
<path d="M50.1827 87.8725L52.152 87.639L52.2369 88.349L47.4469 88.9174L47.362 88.2075L49.3407 87.9716L48.6568 82.2093L49.5011 82.1079L50.185 87.8702L50.1827 87.8725Z" fill="white"/>
<path d="M46.0295 88.9009C45.6215 88.9622 45.0885 89.0117 44.4116 89C43.5791 88.9858 42.973 88.783 42.5932 88.4292C42.2395 88.1131 42.0367 87.6366 42.0461 87.0564C42.0555 86.4667 42.2371 86.0044 42.572 85.6719C43.0248 85.2048 43.7536 84.9761 44.5767 84.9878C44.829 84.9926 45.0602 85.0044 45.2536 85.0562L45.296 82.4452L46.138 82.4593L46.0318 88.9009H46.0295ZM45.2394 85.745C45.0554 85.6931 44.8243 85.6695 44.5437 85.6648C43.5295 85.6483 42.9022 86.1318 42.8857 87.0305C42.8715 87.8914 43.4729 88.3159 44.4022 88.3324C44.7701 88.3395 45.0507 88.3136 45.197 88.2782L45.2394 85.745Z" fill="white"/>
<path d="M37.4495 84.9124L39.9612 85.2426L40.2654 82.9122L37.466 82.5443L37.558 81.8438L41.1923 82.3202L40.3456 88.783L36.8552 88.3254L36.9471 87.6249L39.6027 87.974L39.8692 85.9313L37.3575 85.6011L37.4471 84.91L37.4495 84.9124Z" fill="white"/>
<path d="M33.9826 86.948L35.9023 87.4457L35.7231 88.1391L31.0534 86.9315L31.2326 86.238L33.1618 86.7381L34.6146 81.1221L35.4377 81.3343L33.9849 86.9504L33.9826 86.948Z" fill="white"/>
<path d="M28.9898 86.1625L29.8954 83.9006C29.7044 83.8558 29.3388 83.7284 29.1336 83.6458C27.8955 83.1482 27.0205 82.1622 27.5558 80.8249C27.7823 80.2588 28.1266 79.9191 28.5417 79.7186C29.2445 79.3955 30.1643 79.5465 30.9968 79.8814C31.5439 80.1007 31.9425 80.3036 32.1878 80.4427L29.7704 86.4739L28.9898 86.1602V86.1625ZM31.1737 80.714C31.0086 80.6055 30.8152 80.5182 30.5463 80.4097C29.6761 80.0606 28.761 80.1833 28.3907 81.1079C28.0087 82.0584 28.6289 82.7236 29.4898 83.0703C29.6879 83.1505 29.9355 83.2283 30.1454 83.2802L31.1737 80.714Z" fill="white"/>
<path d="M22.3413 82.9594C21.9899 82.8273 21.4687 82.5655 20.9711 82.2471C20.2612 81.7942 19.8815 81.3815 19.7164 80.8861C19.5655 80.4922 19.6032 80.0559 19.8768 79.6243C20.214 79.0935 20.8603 78.853 21.5749 79.0086L21.5843 78.9921C21.1456 78.5298 20.8084 77.7066 21.3272 76.8905C21.6291 76.4164 22.0442 76.1782 22.4923 76.0839C23.0984 75.9777 23.8224 76.2089 24.721 76.7797C25.2116 77.091 25.5653 77.3623 25.7799 77.5463L22.3366 82.9547L22.3413 82.9594ZM23.0654 80.2564L22.4215 79.846C21.6716 79.3672 20.9805 79.4804 20.6433 80.0087C20.2329 80.6526 20.5607 81.2187 21.2801 81.6739C21.6055 81.8815 21.8107 81.9759 21.9404 82.0254L23.0677 80.254L23.0654 80.2564ZM24.7422 77.6217C24.6196 77.5085 24.4215 77.3717 24.1668 77.209C23.4333 76.7419 22.5843 76.5792 22.0748 77.3788C21.5961 78.1289 22.0442 78.8506 22.8201 79.3436L23.4074 79.7162L24.7422 77.6194V77.6217Z" fill="white"/>
<path d="M16.7331 79.2162L18.5278 77.1382C19.2047 76.3551 19.7754 75.723 20.3886 75.1027L20.3792 75.0838C19.6882 75.381 18.9193 75.6499 18.0538 75.9258L14.2638 77.0863L13.627 76.5367L17.8887 71.6047L18.4877 72.1236L16.6741 74.2229C15.9854 75.0201 15.4713 75.6003 14.8841 76.1782L14.9006 76.2042C15.6105 75.8716 16.4406 75.5909 17.2496 75.3338L20.9122 74.2158L21.5914 74.8031L17.3297 79.7351L16.7307 79.2162H16.7331Z" fill="white"/>
<path d="M9.18369 71.5222L13.6388 67.7601L13.285 67.312L15.0279 65.9156L15.4524 66.418L14.292 67.4724L16.9429 70.6118L18.1764 69.6447L18.6009 70.1471L16.9311 71.6331L16.5986 71.2699C16.1033 71.3713 15.5845 71.4939 15.0939 71.7062C14.3746 72.0223 13.6529 72.5176 12.7968 73.2417L11.5327 74.3078L9.18134 71.5222H9.18369ZM12.502 72.4681C13.2992 71.7935 14.035 71.3005 14.7449 71.0033C15.1788 70.8146 15.6434 70.6873 16.0326 70.6118L14.1741 68.4088L10.2591 71.7156L11.5633 73.2606L12.502 72.4681Z" fill="white"/>
<path d="M8.96202 64.9321L10.3181 67.0738L12.3039 65.8166L10.7945 63.432L11.3912 63.0546L13.3511 66.1515L7.84412 69.6376L5.9621 66.6633L6.55878 66.286L7.99035 68.5479L9.73086 67.4464L8.37713 65.3047L8.96438 64.9321H8.96202Z" fill="white"/>
<path d="M5.6367 58.5802C7.68617 57.665 9.32764 58.4269 10.0045 59.9458C10.705 61.5191 9.97856 63.1654 8.17908 63.9698C6.28998 64.8142 4.52824 64.1891 3.81835 62.5994C3.09431 60.9742 3.87023 59.368 5.6367 58.5802ZM7.79466 63.156C9.06585 62.5876 9.89838 61.3917 9.3583 60.1817C8.8135 58.9623 7.38429 58.7736 6.03527 59.3774C4.85134 59.9058 3.89146 61.0757 4.4622 62.3564C5.03058 63.6277 6.48809 63.741 7.79466 63.156Z" fill="white"/>
<path d="M6.35123 46.1523C6.53755 46.4424 6.75924 47.0415 6.84414 47.8316C7.03989 49.6596 6.0352 51.1574 3.91026 51.3885C1.88201 51.6079 0.358466 50.3814 0.141491 48.3694C0.0542289 47.5628 0.17215 47.032 0.264129 46.7985L0.969299 46.9259C0.849019 47.2608 0.782983 47.7231 0.841944 48.2633C1.00703 49.7823 2.08484 50.688 3.78762 50.504C5.37484 50.3318 6.29463 49.3105 6.12482 47.7326C6.07058 47.2231 5.90785 46.716 5.70738 46.3952L6.35123 46.1499V46.1523Z" fill="white"/>
<path d="M3.95982 39.6847C3.04947 39.68 1.95516 39.6706 1.14622 39.614V39.6423C1.89384 39.9088 2.68863 40.2296 3.56597 40.6093L6.65315 41.9467L6.61541 42.5835L3.45512 43.4515C2.51882 43.7063 1.66507 43.9162 0.882074 44.053V44.0719C1.69101 44.1403 2.77825 44.2535 3.74992 44.3691L6.52815 44.7087L6.48098 45.5106L0.00238037 44.6686L0.0660579 43.5978L3.27824 42.6755C4.09425 42.4538 4.82301 42.2745 5.50931 42.1495V42.1212C4.86546 41.9184 4.16501 41.6448 3.36078 41.3051L0.283033 39.9583L0.346711 38.8875L6.8772 38.871L6.82767 39.6918L3.95982 39.6847Z" fill="white"/>
<path d="M5.20038 31.6676C7.37721 32.2054 8.20502 33.814 7.80644 35.4297C7.39372 37.0997 5.80886 37.9535 3.89381 37.4794C1.88443 36.9817 0.87974 35.4085 1.29718 33.7197C1.72406 31.9931 3.32307 31.203 5.20038 31.6676ZM4.08956 36.602C5.44094 36.9369 6.83241 36.5029 7.1508 35.2175C7.47155 33.9225 6.45978 32.8942 5.0235 32.5404C3.76646 32.229 2.29008 32.5616 1.95283 33.9225C1.61793 35.2741 2.70045 36.2576 4.08956 36.602Z" fill="white"/>
<path d="M3.85602 28.4079L3.1084 30.2453L2.44568 29.9764L4.26403 25.5067L4.92674 25.7756L4.17676 27.6201L9.55162 29.8066L9.23088 30.5944L3.85602 28.4079Z" fill="white"/>
<path d="M4.95514 24.3392C5.09664 23.9523 5.30654 23.4594 5.63908 22.8697C6.04709 22.1456 6.51406 21.7092 7.00697 21.5441C7.45271 21.3837 7.96921 21.4309 8.47391 21.7163C8.98805 22.0064 9.30644 22.3862 9.44087 22.8391C9.63426 23.4594 9.4904 24.2094 9.0871 24.9265C8.96447 25.1458 8.84183 25.344 8.70504 25.4878L10.9786 26.7686L10.5658 27.5022L4.95514 24.3415V24.3392ZM8.106 25.1482C8.23807 25.0114 8.37014 24.818 8.50693 24.575C9.00456 23.6905 8.87956 22.9098 8.09657 22.4664C7.34659 22.0442 6.68623 22.3697 6.22869 23.1787C6.04709 23.4995 5.93625 23.7566 5.89851 23.9028L8.106 25.1458V25.1482Z" fill="white"/>
<path d="M12.627 18.7067L11.1176 20.7422L13.0044 22.1409L14.6859 19.8719L15.2519 20.2917L13.0704 23.2353L7.83704 19.353L9.93368 16.5249L10.4997 16.9447L8.9054 19.0959L10.5587 20.3224L12.0681 18.2868L12.627 18.702V18.7067Z" fill="white"/>
<path d="M12.5256 14.6898L11.1601 16.1286L10.6412 15.6357L13.9643 12.1354L14.4831 12.6283L13.1129 14.0742L17.3203 18.0698L16.7354 18.6878L12.528 14.6922L12.5256 14.6898Z" fill="white"/>
<path d="M15.6316 10.7037L17.1717 12.593C17.3037 12.4491 17.5915 12.1896 17.7636 12.0481C18.7966 11.2037 20.0843 10.9159 20.9947 12.0316C21.3791 12.5033 21.5112 12.9703 21.4852 13.4279C21.4286 14.1992 20.8508 14.9304 20.1551 15.4988C19.6975 15.8715 19.3296 16.1239 19.0867 16.2701L14.9783 11.2344L15.6293 10.7013L15.6316 10.7037ZM19.3438 15.2512C19.5183 15.1592 19.6881 15.0318 19.9145 14.8479C20.6409 14.2558 20.9758 13.3949 20.3461 12.6236C19.6975 11.8287 18.8155 12.0505 18.0962 12.6354C17.9311 12.7699 17.7424 12.9491 17.5938 13.1071L19.3414 15.2512H19.3438Z" fill="white"/>
<path d="M21.6433 6.43684C21.9287 6.19389 22.4098 5.86368 22.9287 5.58064C23.6668 5.1773 24.2116 5.04522 24.7258 5.13956C25.1432 5.19853 25.5064 5.43912 25.7517 5.88962C26.0536 6.44155 25.9522 7.12321 25.471 7.67514L25.4805 7.69165C26.0984 7.53126 26.9804 7.63269 27.4427 8.48181C27.7115 8.97477 27.721 9.45359 27.5842 9.8923C27.3837 10.4749 26.8319 10.9962 25.8979 11.508C25.3885 11.7863 24.9805 11.9656 24.7163 12.067L21.6433 6.44155V6.43684ZM23.6598 8.37567L24.3296 8.01007C25.1102 7.58315 25.346 6.92508 25.0442 6.37315C24.6786 5.70329 24.0253 5.71744 23.2777 6.12549C22.9381 6.31183 22.7565 6.44391 22.6527 6.53354L23.6574 8.37567H23.6598ZM25.1574 11.1165C25.3154 11.0622 25.5324 10.9561 25.7965 10.8122C26.5606 10.3947 27.1125 9.72955 26.6573 8.8993C26.2305 8.11857 25.3838 8.16339 24.5772 8.6021L23.9664 8.93704L25.1574 11.1188V11.1165Z" fill="white"/>
<path d="M27.6361 3.33049L28.5842 5.90853C28.9426 6.8803 29.2162 7.68461 29.4639 8.52194H29.4851C29.5605 7.77424 29.6973 6.97229 29.8742 6.08307L30.695 2.2054L31.485 1.91528L33.735 8.0337L32.9897 8.3073L32.0322 5.70332C31.669 4.71503 31.4096 3.98384 31.1902 3.18897H31.1596C31.1077 3.97205 30.9497 4.83297 30.7822 5.66794L29.9851 9.41352L29.1407 9.72487L26.8908 3.60646L27.6361 3.33285V3.33049Z" fill="white"/>
<path d="M38.039 0.4552L39.164 6.17735L39.7277 6.08536L40.1003 8.28837L39.4541 8.41574L39.0956 6.88967L35.0627 7.68219L35.308 9.23184L34.6618 9.35921L34.1736 7.17743L34.6547 7.06422C34.8056 6.58069 34.9519 6.06885 35.0061 5.53579C35.0792 4.75271 34.9967 3.88236 34.7797 2.78086L34.4613 1.15809L38.039 0.4552ZM35.6004 2.89643C35.8009 3.92246 35.8764 4.8046 35.7915 5.56881C35.7467 6.04055 35.6311 6.50757 35.5085 6.88496L38.3362 6.32831L37.348 1.29725L35.3646 1.68643L35.6004 2.89171V2.89643Z" fill="white"/>
<path d="M43.8998 3.4649L41.3692 3.60878L41.5036 5.95566L44.3219 5.79527L44.362 6.50052L40.7018 6.70808L40.3315 0.200488L43.8455 0L43.8856 0.705245L41.2112 0.858559L41.3291 2.91533L43.8597 2.77145L43.8998 3.46726V3.4649Z" fill="white"/>
<path d="M51.067 3.62994C50.876 5.86597 49.4161 6.93445 47.7581 6.79293C46.0436 6.64669 44.954 5.21262 45.1214 3.24784C45.2983 1.18635 46.6945 -0.0543124 48.4279 0.0942843C50.2015 0.24524 51.2297 1.7029 51.067 3.62994ZM46.02 3.30445C45.9021 4.69135 46.5459 5.99805 47.8666 6.11127C49.1968 6.22449 50.0529 5.06638 50.1779 3.5922C50.2887 2.30201 49.7298 0.893876 48.3336 0.775942C46.9468 0.658008 46.1426 1.8798 46.02 3.30445Z" fill="white"/>
</g>
<defs>
<filter id="filter0_i_1540_4653" x="14.2857" y="13.2858" width="61.4286" height="61.4286" filterUnits="userSpaceOnUse" color-interpolation-filters="sRGB">
<feFlood flood-opacity="0" result="BackgroundImageFix"/>
<feBlend mode="normal" in="SourceGraphic" in2="BackgroundImageFix" result="shape"/>
<feColorMatrix in="SourceAlpha" type="matrix" values="0 0 0 0 0 0 0 0 0 0 0 0 0 0 0 0 0 0 127 0" result="hardAlpha"/>
<feOffset/>
<feGaussianBlur stdDeviation="6.07059"/>
<feComposite in2="hardAlpha" operator="arithmetic" k2="-1" k3="1"/>
<feColorMatrix type="matrix" values="0 0 0 0 0.74902 0 0 0 0 0.592157 0 0 0 0 1 0 0 0 0.24 0"/>
<feBlend mode="normal" in2="shape" result="effect1_innerShadow_1540_4653"/>
</filter>
<linearGradient id="paint0_linear_1540_4653" x1="45" y1="13.2858" x2="45" y2="74.7143" gradientUnits="userSpaceOnUse">
<stop offset="0.1771" stop-color="white" stop-opacity="0"/>
<stop offset="1" stop-color="white" stop-opacity="0.12"/>
</linearGradient>
<linearGradient id="paint1_linear_1540_4653" x1="45" y1="13.2858" x2="45" y2="74.7143" gradientUnits="userSpaceOnUse">
<stop stop-color="#3C087E" stop-opacity="0"/>
<stop offset="1" stop-color="#3C087E" stop-opacity="0.32"/>
</linearGradient>
<clipPath id="clip0_1540_4653">
<rect width="89" height="89" fill="white"/>
</clipPath>
</defs>
</svg>
