<svg width="21" height="21" viewBox="0 0 21 21" fill="none" xmlns="http://www.w3.org/2000/svg">
<g opacity="0.6">
<path fill-rule="evenodd" clip-rule="evenodd" d="M10.5 5.90625C10.5 5.90625 12.4028 5.90625 13.7483 7.25173C13.7483 7.25173 15.0937 8.59721 15.0937 10.5C15.0937 10.5 15.0937 12.4028 13.7483 13.7483C13.7483 13.7483 12.4028 15.0938 10.5 15.0938C10.5 15.0938 8.59719 15.0937 7.25171 13.7483C7.25171 13.7483 5.90623 12.4028 5.90623 10.5C5.90623 10.5 5.90623 8.59721 7.25171 7.25173C7.25171 7.25173 8.59719 5.90625 10.5 5.90625ZM10.5 7.21875C10.5 7.21875 9.14085 7.21875 8.17979 8.17981C8.17979 8.17981 7.21874 9.14086 7.21873 10.5C7.21873 10.5 7.21873 11.8591 8.17979 12.8202C8.17979 12.8202 9.14085 13.7813 10.5 13.7812C10.5 13.7812 11.8591 13.7812 12.8202 12.8202C12.8202 12.8202 13.7812 11.8591 13.7812 10.5C13.7812 10.5 13.7812 9.14086 12.8202 8.17981C12.8202 8.17981 11.8591 7.21875 10.5 7.21875Z" fill="white"/>
<path fill-rule="evenodd" clip-rule="evenodd" d="M16.8901 4.19467L16.8526 6.42444C16.8526 6.42444 17.0471 6.72305 17.2087 7.04065L19.1533 8.12179C19.317 8.21282 19.434 8.3695 19.4749 8.55235C19.4749 8.55235 19.9092 10.4976 19.4837 12.4448C19.4434 12.6292 19.3257 12.7873 19.1605 12.8788L17.2084 13.96C17.2084 13.96 17.0469 14.2773 16.8526 14.5756L16.8901 16.8054C16.8933 16.9938 16.8153 17.1746 16.676 17.3015C16.676 17.3015 15.2046 18.6423 13.3102 19.2538C13.13 19.312 12.9334 19.2895 12.771 19.1921L10.8527 18.0411C10.8527 18.0411 10.4998 18.0569 10.1469 18.0411L8.2366 19.1842C8.07553 19.2806 7.8809 19.3034 7.70191 19.2469C7.70191 19.2469 5.79899 18.6457 4.32398 17.3015C4.18468 17.1745 4.10668 16.9938 4.10986 16.8054L4.14744 14.5806C4.14744 14.5806 3.95412 14.279 3.79164 13.9596L1.84674 12.8783C1.68299 12.7872 1.56597 12.6306 1.52515 12.4477C1.52515 12.4477 1.09083 10.5025 1.5163 8.55526C1.55659 8.37085 1.67434 8.21272 1.83947 8.12126L3.79155 7.04011C3.79155 7.04011 3.95306 6.72279 4.1474 6.42444L4.10986 4.19467C4.10669 4.00623 4.18469 3.82551 4.324 3.69856C4.324 3.69856 5.7954 2.35775 7.68981 1.74622C7.87005 1.68804 8.06664 1.71056 8.22904 1.80801L10.1473 2.95897C10.1473 2.95897 10.5002 2.94318 10.8531 2.95899L12.7634 1.81582C12.9245 1.71943 13.1191 1.69663 13.2981 1.75318C13.2981 1.75318 15.201 2.35437 16.676 3.69858C16.8153 3.82553 16.8933 4.00623 16.8901 4.19467ZM15.5368 6.60891L15.5727 4.47602C15.5727 4.47602 14.5011 3.56836 13.1781 3.0972L11.3538 4.18894C11.2383 4.25807 11.1043 4.29 10.97 4.28039C10.97 4.28039 10.5 4.24678 10.03 4.28039C9.89548 4.29002 9.76123 4.25795 9.64557 4.18855L7.81535 3.09042C7.81535 3.09042 6.49708 3.569 5.42728 4.47594L5.46319 6.60891C5.46552 6.74708 5.42417 6.88245 5.34504 6.99574C5.34504 6.99574 5.08052 7.37445 4.88441 7.79269C4.82575 7.91781 4.72908 8.02122 4.60819 8.08818L2.74136 9.12212C2.74136 9.12212 2.49259 10.5005 2.74805 11.8777L4.60913 12.9124C4.7291 12.9791 4.82514 13.0818 4.88372 13.2059C4.88372 13.2059 5.08408 13.6305 5.34891 14.0181C5.42555 14.1303 5.46548 14.2635 5.46319 14.3994L5.4273 16.5241C5.4273 16.5241 6.4989 17.4317 7.82188 17.9029L9.64622 16.8111C9.76174 16.742 9.89574 16.7101 10.03 16.7197C10.03 16.7197 10.5 16.7533 10.97 16.7197C11.1045 16.7101 11.2388 16.7421 11.3544 16.8115L13.1847 17.9097C13.1847 17.9097 14.5029 17.4311 15.5727 16.5241L15.5368 14.3912C15.5345 14.253 15.5758 14.1176 15.655 14.0043C15.655 14.0043 15.9195 13.6256 16.1156 13.2074C16.1743 13.0823 16.2709 12.9788 16.3918 12.9119L18.2586 11.878C18.2586 11.878 18.5074 10.4996 18.2519 9.12239L16.3909 8.08766C16.2704 8.02068 16.1741 7.91748 16.1156 7.79269C16.1156 7.79269 15.9195 7.37445 15.655 6.99574C15.5758 6.88245 15.5345 6.74708 15.5368 6.60891Z" fill="white"/>
</g>
</svg>
