<svg width="21" height="21" viewBox="0 0 21 21" fill="none" xmlns="http://www.w3.org/2000/svg">
<g opacity="0.6">
<path fill-rule="evenodd" clip-rule="evenodd" d="M2.10609 3.57372C2.10609 3.57372 2.24375 3.29695 2.49047 3.1107C2.49047 3.1107 2.73718 2.92446 3.04108 2.8679C3.04108 2.8679 3.34499 2.81133 3.64536 2.89725L18.0797 7.10454C18.0797 7.10454 18.5025 7.22548 18.7671 7.57676C18.7671 7.57676 19.0317 7.92804 19.0312 8.36713V11.3196C19.0312 11.3196 19.0317 11.7593 18.7671 12.1106C18.7671 12.1106 18.5025 12.4619 18.0829 12.5819L3.64219 16.791C3.64219 16.791 3.34499 16.8761 3.04108 16.8195C3.04108 16.8195 2.73718 16.7629 2.49047 16.5767C2.49047 16.5767 2.24375 16.3904 2.10609 16.1137C2.10609 16.1137 1.96842 15.8369 1.96875 15.5285L1.96875 4.15962C1.96875 4.15962 1.96842 3.8505 2.10609 3.57372ZM3.28125 4.15823L3.28125 15.5292L17.7156 11.3219L17.7187 11.3209V8.36644L3.28125 4.15823Z" fill="white"/>
<path d="M11.8125 15.7501V5.76686C11.8125 5.40442 11.5187 5.11061 11.1562 5.11061C10.7938 5.11061 10.5 5.40442 10.5 5.76686V15.7501C10.5 16.2937 10.8844 16.6781 10.8844 16.6781C11.2688 17.0626 11.8125 17.0626 11.8125 17.0626H14.4375C14.9812 17.0626 15.3656 16.6781 15.3656 16.6781C15.75 16.2937 15.75 15.7501 15.75 15.7501V12.7723C15.75 12.4099 15.4562 12.1161 15.0937 12.1161C14.7313 12.1161 14.4375 12.4099 14.4375 12.7723V15.7501H11.8125Z" fill="white"/>
</g>
</svg>
