<svg width="21" height="21" viewBox="0 0 21 21" fill="none" xmlns="http://www.w3.org/2000/svg">
<g opacity="0.6">
<path d="M0.695208 8.20526L0.695233 8.20526C0.700173 7.98541 0.823453 7.76402 1.02446 7.65667L0.695208 8.20526ZM0.695208 8.20526V8.2075V13.3027C0.47471 13.4824 0.343997 13.7515 0.340316 14.0379L0.340167 14.0379L0.340395 14.0434C0.392502 15.2901 2.24619 15.3006 2.29932 14.0434L2.29947 14.0434L2.2994 14.0379C2.29572 13.7517 2.16575 13.4825 1.94521 13.3027V9.24887L10.1438 13.6435C10.1438 13.6435 10.1439 13.6435 10.1439 13.6436C10.5508 13.8632 11.0399 13.8632 11.4468 13.6436M0.695208 8.20526L11.4468 13.6436M5.79731 13.1594C5.79751 12.9602 5.72029 12.8037 5.59937 12.6983C5.48043 12.5945 5.32492 12.5449 5.1729 12.5448C5.02088 12.5447 4.86526 12.5941 4.74612 12.6978C4.62499 12.8032 4.54751 12.9597 4.54731 13.1592V13.1593V14.9541H4.54726L4.54736 14.9573C4.5848 16.1262 5.42754 16.9873 6.62878 17.5513C7.83165 18.1162 9.41638 18.3958 10.9954 18.3955C12.5744 18.3952 14.1589 18.1149 15.3615 17.5499C16.5625 16.9857 17.4049 16.125 17.4418 14.9573L17.4418 14.9573V14.9541V10.4353L20.2269 8.94246C20.5185 8.79693 20.66 8.49815 20.6602 8.20792C20.6604 7.91764 20.5192 7.61874 20.2261 7.47321L11.4468 2.76787C11.4468 2.76787 11.4468 2.76787 11.4467 2.76786C11.0399 2.54975 10.5509 2.54975 10.1441 2.76787C10.1441 2.76787 10.1441 2.76787 10.1441 2.76787L1.02463 7.65658L5.69731 14.9541C5.69731 16.051 7.95761 17.2767 10.9914 17.2767C14.0252 17.2767 16.2918 16.051 16.2918 14.9541V11.0488L16.1918 11.1024M5.79731 13.1594L5.69731 13.1593H5.79731V13.1594ZM5.79731 13.1594V14.9541C5.79731 15.1931 5.92079 15.4518 6.1699 15.7104C6.41832 15.9682 6.78441 16.2179 7.2492 16.4362C8.17833 16.8726 9.48699 17.1767 10.9914 17.1767C12.4958 17.1767 13.8061 16.8726 14.7368 16.4362C15.2024 16.2179 15.5693 15.9682 15.8183 15.7103C16.068 15.4517 16.1918 15.193 16.1918 14.9541V11.1024M16.1918 11.1024L11.447 13.6435M16.1918 11.1024V10.989L11.447 13.6435M11.447 13.6435C11.4469 13.6435 11.4469 13.6436 11.4468 13.6436M11.447 13.6435L11.4468 13.6436M10.8553 12.5448L10.8549 12.545C10.8174 12.5653 10.772 12.5653 10.7345 12.545L10.7342 12.5448L3.80863 8.8325H10.7947C11.1397 8.8325 11.4197 8.55253 11.4197 8.2075C11.4197 7.86247 11.1397 7.5825 10.7947 7.5825H3.80874L10.7376 3.86955L10.738 3.86933C10.7755 3.84903 10.8216 3.84903 10.8591 3.86933L10.8595 3.86954L18.9474 8.20542L10.8553 12.5448Z" fill="white" stroke="white" stroke-width="0.2"/>
</g>
</svg>
