<svg width="21" height="21" viewBox="0 0 21 21" fill="none" xmlns="http://www.w3.org/2000/svg">
<g opacity="0.6">
<path fill-rule="evenodd" clip-rule="evenodd" d="M5.57813 12.4688C5.57813 12.4688 6.80135 12.4688 7.6663 13.3337C7.6663 13.3337 8.53125 14.1987 8.53125 15.4219C8.53125 15.4219 8.53125 16.6451 7.6663 17.51C7.6663 17.51 6.80135 18.375 5.57813 18.375C5.57813 18.375 4.3549 18.375 3.48995 17.51C3.48995 17.51 2.625 16.6451 2.625 15.4219C2.625 15.4219 2.625 14.1987 3.48995 13.3337C3.48995 13.3337 4.3549 12.4688 5.57813 12.4688ZM5.57813 13.7812C5.57813 13.7812 4.89856 13.7812 4.41803 14.2618C4.41803 14.2618 3.9375 14.7423 3.9375 15.4219C3.9375 15.4219 3.9375 16.1014 4.41803 16.582C4.41803 16.582 4.89856 17.0625 5.57813 17.0625C5.57813 17.0625 6.25769 17.0625 6.73822 16.582C6.73822 16.582 7.21875 16.1014 7.21875 15.4219C7.21875 15.4219 7.21875 14.7423 6.73822 14.2618C6.73822 14.2618 6.25769 13.7812 5.57813 13.7812Z" fill="white"/>
<path fill-rule="evenodd" clip-rule="evenodd" d="M15.4219 2.625C15.4219 2.625 16.6451 2.625 17.51 3.48995C17.51 3.48995 18.375 4.3549 18.375 5.57812C18.375 5.57812 18.375 6.80135 17.51 7.6663C17.51 7.6663 16.6451 8.53125 15.4219 8.53125C15.4219 8.53125 14.1987 8.53125 13.3337 7.6663C13.3337 7.6663 12.4688 6.80135 12.4688 5.57812C12.4688 5.57812 12.4688 4.3549 13.3337 3.48995C13.3337 3.48995 14.1987 2.625 15.4219 2.625ZM15.4219 3.9375C15.4219 3.9375 14.7423 3.9375 14.2618 4.41803C14.2618 4.41803 13.7812 4.89856 13.7812 5.57812C13.7812 5.57812 13.7812 6.25769 14.2618 6.73822C14.2618 6.73822 14.7423 7.21875 15.4219 7.21875C15.4219 7.21875 16.1014 7.21875 16.582 6.73822C16.582 6.73822 17.0625 6.25769 17.0625 5.57812C17.0625 5.57812 17.0625 4.89856 16.582 4.41803C16.582 4.41803 16.1014 3.9375 15.4219 3.9375Z" fill="white"/>
<path fill-rule="evenodd" clip-rule="evenodd" d="M5.57813 2.625C5.57813 2.625 6.80135 2.625 7.6663 3.48995C7.6663 3.48995 8.53125 4.3549 8.53125 5.57812C8.53125 5.57812 8.53125 6.80135 7.6663 7.6663C7.6663 7.6663 6.80135 8.53125 5.57813 8.53125C5.57813 8.53125 4.3549 8.53125 3.48995 7.6663C3.48995 7.6663 2.625 6.80135 2.625 5.57812C2.625 5.57812 2.625 4.3549 3.48995 3.48995C3.48995 3.48995 4.3549 2.625 5.57813 2.625ZM5.57813 3.9375C5.57813 3.9375 4.89856 3.9375 4.41803 4.41803C4.41803 4.41803 3.9375 4.89856 3.9375 5.57812C3.9375 5.57812 3.9375 6.25769 4.41803 6.73822C4.41803 6.73822 4.89856 7.21875 5.57813 7.21875C5.57813 7.21875 6.25769 7.21875 6.73822 6.73822C6.73822 6.73822 7.21875 6.25769 7.21875 5.57812C7.21875 5.57812 7.21875 4.89856 6.73822 4.41803C6.73822 4.41803 6.25769 3.9375 5.57813 3.9375Z" fill="white"/>
<path d="M16.0781 8.53125V7.875C16.0781 7.51256 15.7843 7.21875 15.4219 7.21875C15.0594 7.21875 14.7656 7.51256 14.7656 7.875V8.53125C14.7667 8.79486 14.6674 9.03608 14.6674 9.03608C14.5681 9.27729 14.3836 9.46175 14.3836 9.46175C14.1992 9.6462 13.958 9.74553 13.958 9.74553C13.7168 9.84485 13.4559 9.84376 13.4559 9.84376L7.54689 9.84375C7.02628 9.84156 6.54234 10.0408 6.54234 10.0408C6.05839 10.2401 5.68832 10.6102 5.68832 10.6102C5.31824 10.9803 5.11897 11.4642 5.11897 11.4642C4.9197 11.9481 4.9219 12.4715 4.9219 12.4715L4.92189 13.125C4.92189 13.4874 5.21569 13.7812 5.57813 13.7812C5.94056 13.7812 6.23439 13.4874 6.23439 13.125L6.23439 12.466C6.23329 12.2051 6.33262 11.9639 6.33262 11.9639C6.43194 11.7227 6.6164 11.5383 6.6164 11.5383C6.80085 11.3538 7.04207 11.2545 7.04207 11.2545C7.28328 11.1552 7.54689 11.1562 7.54689 11.1562L13.4504 11.1562C13.9738 11.1584 14.4577 10.9592 14.4577 10.9592C14.9416 10.7599 15.3117 10.3898 15.3117 10.3898C15.6818 10.0197 15.8811 9.5358 15.8811 9.5358C16.0803 9.05186 16.0781 8.53125 16.0781 8.53125Z" fill="white"/>
<path d="M4.92188 7.875L4.92189 13.125C4.92189 13.4874 5.21569 13.7812 5.57813 13.7812C5.94056 13.7812 6.23439 13.4874 6.23439 13.125L6.23438 7.875C6.23438 7.51256 5.94056 7.21875 5.57813 7.21875C5.21569 7.21875 4.92188 7.51256 4.92188 7.875Z" fill="white"/>
</g>
</svg>
