<svg width="21" height="21" viewBox="0 0 21 21" fill="none" xmlns="http://www.w3.org/2000/svg">
<g id="Iconly/Light-Outline/Home">
<g id="Home">
<mask id="mask0_126_883" style="mask-type:luminance" maskUnits="userSpaceOnUse" x="1" y="0" width="19" height="20">
<path id="Clip 2" fill-rule="evenodd" clip-rule="evenodd" d="M1.75 0.875168H19.6873V19.692H1.75V0.875168Z" fill="white"/>
</mask>
<g mask="url(#mask0_126_883)">
<path id="Fill 1" fill-rule="evenodd" clip-rule="evenodd" d="M11.9036 13.1426C12.8764 13.1426 13.6682 13.9287 13.6682 14.895V17.3803C13.6682 17.5879 13.8346 17.7544 14.0479 17.7592H15.5879C16.8014 17.7592 17.7879 16.7848 17.7879 15.5874V8.53886C17.7823 8.12681 17.5859 7.73899 17.249 7.48125L11.9222 3.23304C11.2071 2.66666 10.2069 2.66666 9.48943 3.23466L4.19896 7.47964C3.84912 7.74545 3.65279 8.13327 3.64875 8.5526V15.5874C3.64875 16.7848 4.63526 17.7592 5.8488 17.7592H7.4033C7.62226 17.7592 7.80001 17.5855 7.80001 17.3722C7.80001 17.3253 7.80566 17.2785 7.81536 17.234V14.895C7.81536 13.9344 8.6023 13.149 9.56781 13.1426H11.9036ZM15.588 18.9712H14.0335C13.1431 18.9502 12.4564 18.2513 12.4564 17.3803V14.8951C12.4564 14.5969 12.2083 14.3546 11.9037 14.3546H9.57198C9.27384 14.3562 9.02742 14.5994 9.02742 14.8951V17.3723C9.02742 17.4329 9.01934 17.491 9.00237 17.546C8.91511 18.3458 8.23158 18.9712 7.40343 18.9712H5.84893C3.96721 18.9712 2.43695 17.453 2.43695 15.5875V8.54699C2.44503 7.74389 2.81507 7.00865 3.45416 6.52469L8.73413 2.28698C9.89677 1.36591 11.5167 1.36591 12.6769 2.28536L17.9949 6.52711C18.6194 7.003 18.9895 7.73662 19 8.53003V15.5875C19 17.453 17.4697 18.9712 15.588 18.9712Z" fill="white"/>
</g>
</g>
</g>
</svg>
