<svg width="21" height="22" viewBox="0 0 21 22" fill="none" xmlns="http://www.w3.org/2000/svg">
<g opacity="0.6">
<path d="M4.26562 12.3125H8.20312C8.56556 12.3125 8.85938 12.0187 8.85938 11.6562C8.85938 11.2938 8.56556 11 8.20312 11H3.60938C3.24694 11 2.95312 11.2938 2.95312 11.6562V17.5625C2.95312 17.9249 3.24694 18.2188 3.60938 18.2188C3.97181 18.2188 4.26562 17.9249 4.26562 17.5625V12.3125Z" fill="white"/>
<path d="M18.7031 16.9062H2.29688C1.93444 16.9062 1.64062 17.2001 1.64062 17.5625C1.64062 17.9249 1.93444 18.2188 2.29688 18.2188H18.7031C19.0656 18.2188 19.3594 17.9249 19.3594 17.5625C19.3594 17.2001 19.0656 16.9062 18.7031 16.9062Z" fill="white"/>
<path d="M8.85938 8.375H12.7969C13.1593 8.375 13.4531 8.08119 13.4531 7.71875C13.4531 7.35631 13.1593 7.0625 12.7969 7.0625H8.20312C7.84069 7.0625 7.54688 7.35631 7.54688 7.71875V17.5625C7.54688 17.9249 7.84069 18.2188 8.20312 18.2188C8.56556 18.2188 8.85938 17.9249 8.85938 17.5625V8.375Z" fill="white"/>
<path fill-rule="evenodd" clip-rule="evenodd" d="M12.1406 17.5625V3.78125C12.1406 3.41881 12.4344 3.125 12.7969 3.125H17.3906C17.7531 3.125 18.0469 3.41881 18.0469 3.78125V17.5625C18.0469 17.9249 17.7531 18.2188 17.3906 18.2188H12.7969C12.4344 18.2188 12.1406 17.9249 12.1406 17.5625ZM16.7344 16.9062H13.4531V4.4375H16.7344V16.9062Z" fill="white"/>
</g>
</svg>
