<svg width="21" height="21" viewBox="0 0 21 21" fill="none" xmlns="http://www.w3.org/2000/svg">
<g opacity="0.6">
<path fill-rule="evenodd" clip-rule="evenodd" d="M15.75 4.59375H4.59375C4.59375 4.59375 4.32192 4.59375 4.12971 4.78596C4.12971 4.78596 3.9375 4.97817 3.9375 5.25C3.9375 5.25 3.9375 5.52183 4.12971 5.71404C4.12971 5.71404 4.32192 5.90625 4.59375 5.90625H17.7188C17.7188 5.90625 18.2624 5.90625 18.6468 6.29067C18.6468 6.29067 19.0312 6.67509 19.0312 7.21875V16.4062C19.0312 16.4062 19.0312 16.9499 18.6468 17.3343C18.6468 17.3343 18.2624 17.7188 17.7188 17.7188H4.59375C4.59375 17.7188 3.77827 17.7188 3.20163 17.1421C3.20163 17.1421 2.625 16.5655 2.625 15.75V5.25C2.625 5.25 2.625 4.43452 3.20163 3.85788C3.20163 3.85788 3.77827 3.28125 4.59375 3.28125H15.75C16.1124 3.28125 16.4062 3.57506 16.4062 3.9375C16.4062 4.29994 16.1124 4.59375 15.75 4.59375ZM3.9375 15.75V7.11244C3.9375 7.11244 4.24361 7.21875 4.59375 7.21875H17.7188V16.4062H4.59375C4.59375 16.4062 4.32192 16.4062 4.12971 16.214C4.12971 16.214 3.9375 16.0218 3.9375 15.75Z" fill="white"/>
<path d="M15.75 11.8125C15.75 12.3561 15.3093 12.7969 14.7656 12.7969C14.222 12.7969 13.7812 12.3561 13.7812 11.8125C13.7812 11.2689 14.222 10.8281 14.7656 10.8281C15.3093 10.8281 15.75 11.2689 15.75 11.8125Z" fill="white"/>
</g>
</svg>
