<svg width="21" height="22" viewBox="0 0 21 22" fill="none" xmlns="http://www.w3.org/2000/svg">
<path d="M16.7907 11L13.8096 13.981L13.8094 13.9813C13.6863 14.1043 13.6172 14.2713 13.6172 14.4453C13.6172 14.4558 13.6174 14.4663 13.6179 14.4768C13.6258 14.6398 13.694 14.794 13.8094 14.9094C13.9325 15.0324 14.0994 15.1016 14.2734 15.1016C14.4475 15.1016 14.6144 15.0324 14.7375 14.9094L14.7377 14.9091L18.1828 11.464C18.3059 11.341 18.375 11.174 18.375 11C18.375 10.826 18.3059 10.659 18.1828 10.536L14.7376 7.09073C14.6144 6.96758 14.4475 6.89844 14.2734 6.89844C14.0994 6.89844 13.9325 6.96758 13.8094 7.09065C13.6863 7.21372 13.6172 7.38064 13.6172 7.55469C13.6172 7.72874 13.6863 7.89566 13.8094 8.01873L16.7907 11Z" fill="#060B39"/>
<path d="M8.53125 11.6562H17.7188C18.0812 11.6562 18.375 11.3624 18.375 11C18.375 10.6376 18.0812 10.3438 17.7188 10.3438H8.53125C8.16881 10.3438 7.875 10.6376 7.875 11C7.875 11.3624 8.16881 11.6562 8.53125 11.6562Z" fill="#060B39"/>
<path d="M3.9375 4.4375H8.53125C8.89369 4.4375 9.1875 4.14369 9.1875 3.78125C9.1875 3.41881 8.89369 3.125 8.53125 3.125H3.9375C3.39384 3.125 3.00942 3.50942 3.00942 3.50942C2.625 3.89384 2.625 4.4375 2.625 4.4375V17.5625C2.625 18.1062 3.00942 18.4906 3.00942 18.4906C3.39384 18.875 3.9375 18.875 3.9375 18.875H8.53125C8.89369 18.875 9.1875 18.5812 9.1875 18.2188C9.1875 17.8563 8.89369 17.5625 8.53125 17.5625H3.9375V4.4375Z" fill="#060B39"/>
</svg>
