<svg width="21" height="22" viewBox="0 0 21 22" fill="none" xmlns="http://www.w3.org/2000/svg">
<g opacity="0.6">
<path fill-rule="evenodd" clip-rule="evenodd" d="M1.96875 7.0625C1.96875 7.0625 1.96875 6.51884 2.35317 6.13442C2.35317 6.13442 2.73759 5.75 3.28125 5.75H17.7188C17.7188 5.75 18.2624 5.75 18.6468 6.13442C18.6468 6.13442 19.0312 6.51884 19.0312 7.0625V17.5625C19.0312 17.5625 19.0312 18.1062 18.6468 18.4906C18.6468 18.4906 18.2624 18.875 17.7188 18.875H3.28125C3.28125 18.875 2.73759 18.875 2.35317 18.4906C2.35317 18.4906 1.96875 18.1062 1.96875 17.5625V7.0625ZM3.28125 7.0625V17.5625H17.7188V7.0625H3.28125Z" fill="white"/>
<path d="M7.13913 3.70163C6.5625 4.27827 6.5625 5.09375 6.5625 5.09375V6.40625C6.5625 6.76869 6.85631 7.0625 7.21875 7.0625C7.58119 7.0625 7.875 6.76869 7.875 6.40625V5.09375C7.875 4.82192 8.06721 4.62971 8.06721 4.62971C8.25942 4.4375 8.53125 4.4375 8.53125 4.4375H12.4688C12.7406 4.4375 12.9328 4.62971 12.9328 4.62971C13.125 4.82192 13.125 5.09375 13.125 5.09375V6.40625C13.125 6.76869 13.4188 7.0625 13.7812 7.0625C14.1437 7.0625 14.4375 6.76869 14.4375 6.40625V5.09375C14.4375 4.27827 13.8609 3.70163 13.8609 3.70163C13.2842 3.125 12.4688 3.125 12.4688 3.125H8.53125C7.71577 3.125 7.13913 3.70163 7.13913 3.70163Z" fill="white"/>
<path d="M2.625 14.2812H18.375C18.7374 14.2812 19.0312 13.9874 19.0312 13.625C19.0312 13.2626 18.7374 12.9688 18.375 12.9688H2.625C2.26256 12.9688 1.96875 13.2626 1.96875 13.625C1.96875 13.9874 2.26256 14.2812 2.625 14.2812Z" fill="white"/>
</g>
</svg>
