<svg width="21" height="21" viewBox="0 0 21 21" fill="none" xmlns="http://www.w3.org/2000/svg">
<path d="M13.7449 8.17495C13.8677 8.0519 13.9371 7.8848 13.9371 7.71092C13.937 7.53687 13.8677 7.36952 13.7445 7.24654C13.6215 7.12368 13.4547 7.05467 13.2808 7.05467C13.1068 7.0548 12.9394 7.12406 12.8165 7.24723L7.25492 12.817C7.13206 12.94 7.06286 13.107 7.06286 13.2808C7.06299 13.4549 7.13225 13.6222 7.25542 13.7452C7.37846 13.8681 7.54523 13.9371 7.71911 13.9371C7.89316 13.937 8.06051 13.8677 8.18349 13.7445L13.7449 8.17495Z" fill="black"/>
<path d="M6.78839 9.56974C6.91146 9.44667 6.98085 9.2795 6.98085 9.10545C6.98085 8.93141 6.91171 8.76449 6.78864 8.64141C6.66557 8.51834 6.49865 8.4492 6.3246 8.4492C6.15055 8.4492 5.98363 8.51834 5.86056 8.64141L3.53908 10.9629C2.1933 12.3087 2.1933 14.2119 2.1933 14.2119C2.1933 16.1151 3.53908 17.4609 3.53908 17.4609C4.88486 18.8067 6.78808 18.8067 6.78808 18.8067C7.70204 18.8067 8.54642 18.4569 8.54642 18.4569C9.39081 18.1072 10.0371 17.4609 10.0371 17.4609L12.3586 15.1394C12.4816 15.0163 12.5508 14.8494 12.5508 14.6754C12.5508 14.5013 12.4816 14.3344 12.3586 14.2113C12.2355 14.0883 12.0686 14.0191 11.8945 14.0191C11.7205 14.0191 11.5536 14.0883 11.4305 14.2113L9.109 16.5328C8.64734 16.9945 8.04415 17.2443 8.04415 17.2443C7.44096 17.4942 6.78808 17.4942 6.78808 17.4942C5.42851 17.4942 4.46716 16.5328 4.46716 16.5328C3.5058 15.5715 3.5058 14.2119 3.5058 14.2119C3.5058 12.8523 4.46716 11.891 4.46716 11.891L6.78839 9.56974Z" fill="black"/>
<path d="M8.64168 5.86038C8.51861 5.98345 8.44922 6.15061 8.44922 6.32466C8.44922 6.33517 8.44947 6.34569 8.44998 6.35619C8.45782 6.51914 8.52607 6.67334 8.64143 6.7887C8.7645 6.91177 8.93142 6.98091 9.10547 6.98091C9.27952 6.98091 9.44644 6.91177 9.56951 6.7887L11.891 4.46722C12.8524 3.50586 14.2119 3.50586 14.2119 3.50586C15.5715 3.50586 16.5328 4.46722 16.5328 4.46722C17.4942 5.42858 17.4942 6.78814 17.4942 6.78814C17.4942 8.1477 16.5328 9.10906 16.5328 9.10906L14.2114 11.4305C14.0883 11.5536 14.0191 11.7205 14.0191 11.8946C14.0191 12.0686 14.0883 12.2356 14.2114 12.3586C14.3344 12.4817 14.5013 12.5508 14.6754 12.5508C14.8494 12.5508 15.0164 12.4817 15.1394 12.3586L17.4609 10.0371C18.8067 8.69136 18.8067 6.78814 18.8067 6.78814C18.8067 4.88492 17.4609 3.53914 17.4609 3.53914C16.1151 2.19336 14.2119 2.19336 14.2119 2.19336C12.3087 2.19336 10.9629 3.53914 10.9629 3.53914L8.64168 5.86038Z" fill="black"/>
</svg>
