<svg width="720" height="843" viewBox="0 0 720 843" fill="none" xmlns="http://www.w3.org/2000/svg">
<g clip-path="url(#clip0_126_2689)">
<g clip-path="url(#clip1_126_2689)">
<g filter="url(#filter0_f_126_2689)">
<path d="M105.951 485.205C163.828 529.114 175.764 612.086 132.611 670.529L63.9247 763.55C20.7716 821.993 -61.1297 833.775 -119.007 789.867C-176.884 745.958 -188.82 662.986 -145.667 604.544L-76.9808 511.522C-33.8277 453.079 48.0736 441.297 105.951 485.205Z" fill="url(#paint0_radial_126_2689)"/>
</g>
<g style="mix-blend-mode:screen" filter="url(#filter1_f_126_2689)">
<path d="M176.927 600.552C219.923 689.23 193.209 812.03 117.26 874.833L20.5241 954.824C-55.4251 1017.63 -151.85 996.651 -194.846 907.973C-237.842 819.295 -211.128 696.495 -135.179 633.692L-38.4433 553.7C37.506 490.897 133.93 511.873 176.927 600.552Z" fill="url(#paint1_radial_126_2689)"/>
</g>
<g filter="url(#filter2_f_126_2689)">
<path d="M169.118 377.913C244.147 343.942 310.055 382.977 316.326 465.1C322.598 547.223 266.858 641.335 191.828 675.306L174.001 683.377C98.9716 717.348 33.0639 678.312 26.7927 596.19C20.5215 514.067 76.2614 419.954 151.291 385.984L169.118 377.913Z" fill="url(#paint2_angular_126_2689)"/>
</g>
</g>
<g filter="url(#filter3_f_126_2689)">
<ellipse cx="-78" cy="461.5" rx="168" ry="184.5" fill="#E1C8FB"/>
</g>
<g filter="url(#filter4_f_126_2689)">
<ellipse cx="-78" cy="563.5" rx="168" ry="184.5" fill="#B56AFF"/>
</g>
<g opacity="0.1">
<path fill-rule="evenodd" clip-rule="evenodd" d="M453.724 199.826L331.6 655.599L-2.04956 321.95L453.724 199.826ZM106.767 351.107L302.443 546.783L374.065 279.485L106.767 351.107Z" fill="url(#paint3_angular_126_2689)"/>
<path fill-rule="evenodd" clip-rule="evenodd" d="M529.823 123.727L359.455 759.551L-106 294.096L529.823 123.727ZM518.926 134.624L-91.1144 298.084L355.466 744.665L518.926 134.624Z" fill="url(#paint4_linear_126_2689)"/>
<path d="M8.08263 635.592L51.5389 473.411L170.264 592.135L8.08263 635.592Z" fill="url(#paint5_linear_126_2689)"/>
</g>
</g>
<defs>
<filter id="filter0_f_126_2689" x="-341.051" y="289.206" width="669.047" height="696.66" filterUnits="userSpaceOnUse" color-interpolation-filters="sRGB">
<feFlood flood-opacity="0" result="BackgroundImageFix"/>
<feBlend mode="normal" in="SourceGraphic" in2="BackgroundImageFix" result="shape"/>
<feGaussianBlur stdDeviation="84.7268" result="effect1_foregroundBlur_126_2689"/>
</filter>
<filter id="filter1_f_126_2689" x="-384.834" y="348.042" width="751.75" height="812.441" filterUnits="userSpaceOnUse" color-interpolation-filters="sRGB">
<feFlood flood-opacity="0" result="BackgroundImageFix"/>
<feBlend mode="normal" in="SourceGraphic" in2="BackgroundImageFix" result="shape"/>
<feGaussianBlur stdDeviation="84.7268" result="effect1_foregroundBlur_126_2689"/>
</filter>
<filter id="filter2_f_126_2689" x="-78.8926" y="260.447" width="500.904" height="540.396" filterUnits="userSpaceOnUse" color-interpolation-filters="sRGB">
<feFlood flood-opacity="0" result="BackgroundImageFix"/>
<feBlend mode="normal" in="SourceGraphic" in2="BackgroundImageFix" result="shape"/>
<feGaussianBlur stdDeviation="52.602" result="effect1_foregroundBlur_126_2689"/>
</filter>
<filter id="filter3_f_126_2689" x="-384" y="139" width="612" height="645" filterUnits="userSpaceOnUse" color-interpolation-filters="sRGB">
<feFlood flood-opacity="0" result="BackgroundImageFix"/>
<feBlend mode="normal" in="SourceGraphic" in2="BackgroundImageFix" result="shape"/>
<feGaussianBlur stdDeviation="69" result="effect1_foregroundBlur_126_2689"/>
</filter>
<filter id="filter4_f_126_2689" x="-384" y="241" width="612" height="645" filterUnits="userSpaceOnUse" color-interpolation-filters="sRGB">
<feFlood flood-opacity="0" result="BackgroundImageFix"/>
<feBlend mode="normal" in="SourceGraphic" in2="BackgroundImageFix" result="shape"/>
<feGaussianBlur stdDeviation="69" result="effect1_foregroundBlur_126_2689"/>
</filter>
<radialGradient id="paint0_radial_126_2689" cx="0" cy="0" r="1" gradientUnits="userSpaceOnUse" gradientTransform="translate(45.013 571.937) rotate(-143.675) scale(572.619 824.46)">
<stop stop-color="#7900F1"/>
<stop offset="1" stop-color="#8E5AFD" stop-opacity="0"/>
</radialGradient>
<radialGradient id="paint1_radial_126_2689" cx="0" cy="0" r="1" gradientUnits="userSpaceOnUse" gradientTransform="translate(-8.95961 754.262) rotate(-115.867) scale(178.444 745.116)">
<stop stop-color="#BC78FF"/>
<stop offset="1" stop-color="#4951FF" stop-opacity="0.37"/>
</radialGradient>
<radialGradient id="paint2_angular_126_2689" cx="0" cy="0" r="1" gradientUnits="userSpaceOnUse" gradientTransform="translate(171.559 530.645) rotate(155.641) scale(158.914 140.143)">
<stop stop-color="#7D27EC"/>
<stop offset="1" stop-color="#2200F1" stop-opacity="0"/>
</radialGradient>
<radialGradient id="paint3_angular_126_2689" cx="0" cy="0" r="1" gradientUnits="userSpaceOnUse" gradientTransform="translate(261.092 392.458) rotate(-41.2656) scale(462.332 462.332)">
<stop stop-color="#7D27EC"/>
<stop offset="1" stop-color="#CB98FF"/>
</radialGradient>
<linearGradient id="paint4_linear_126_2689" x1="524.375" y1="129.176" x2="124.586" y2="543.256" gradientUnits="userSpaceOnUse">
<stop stop-color="#7D27EC"/>
<stop offset="1" stop-color="#AF53F8" stop-opacity="0"/>
</linearGradient>
<linearGradient id="paint5_linear_126_2689" x1="232.521" y1="430.257" x2="-79.2638" y2="703.835" gradientUnits="userSpaceOnUse">
<stop stop-color="#933FFF"/>
<stop offset="1" stop-color="#AB57FF"/>
</linearGradient>
<clipPath id="clip0_126_2689">
<rect width="720" height="843" fill="white"/>
</clipPath>
<clipPath id="clip1_126_2689">
<rect width="1076.53" height="1021.73" fill="white" transform="translate(-668 747.766) rotate(-54.2575)"/>
</clipPath>
</defs>
</svg>
