<svg width="18" height="16" viewBox="0 0 18 16" fill="none" xmlns="http://www.w3.org/2000/svg">
<path d="M9.00001 15.5C8.74911 15.4997 8.50411 15.4239 8.29688 15.2824C5.22696 13.1984 3.89766 11.7695 3.16446 10.8762C1.60196 8.97188 0.853913 7.0168 0.875007 4.89961C0.899616 2.47344 2.8461 0.5 5.21407 0.5C6.93594 0.5 8.12852 1.46992 8.82305 2.27773C8.84505 2.30307 8.87224 2.32338 8.90277 2.3373C8.93329 2.35122 8.96645 2.35842 9.00001 2.35842C9.03356 2.35842 9.06672 2.35122 9.09725 2.3373C9.12778 2.32338 9.15496 2.30307 9.17696 2.27773C9.87149 1.46914 11.0641 0.5 12.7859 0.5C15.1539 0.5 17.1004 2.47344 17.125 4.9C17.1461 7.01758 16.3973 8.97266 14.8356 10.8766C14.1024 11.7699 12.7731 13.1988 9.70313 15.2828C9.49586 15.4241 9.25086 15.4998 9.00001 15.5Z" fill="#974AF4"/>
</svg>
