<svg width="1868" height="775" viewBox="0 0 1868 775" fill="none" xmlns="http://www.w3.org/2000/svg">
<path d="M689.269 682.036V712.008H685.223V685.626H670.864L670.465 693.033C670.161 699.263 669.439 704.049 668.3 707.392C667.16 710.735 665.128 712.407 662.203 712.407C661.405 712.407 660.436 712.255 659.297 711.951L659.582 708.475C660.265 708.627 660.74 708.703 661.006 708.703C662.564 708.703 663.741 707.981 664.539 706.538C665.337 705.094 665.868 703.309 666.134 701.181C666.4 699.054 666.628 696.243 666.818 692.748L667.331 682.036H689.269ZM726.525 681.808C729.336 681.808 731.862 682.454 734.104 683.745C736.383 685.037 738.168 686.841 739.46 689.158C740.751 691.476 741.397 694.097 741.397 697.022C741.397 699.947 740.751 702.568 739.46 704.885C738.168 707.202 736.383 709.026 734.104 710.355C731.862 711.647 729.336 712.293 726.525 712.293C723.866 712.293 721.454 711.723 719.289 710.583C717.123 709.406 715.357 707.791 713.989 705.74C712.66 703.689 711.881 701.333 711.653 698.674H704.815V712.008H700.77V682.036H704.815V694.97H711.71C712.014 692.387 712.831 690.108 714.16 688.133C715.528 686.119 717.275 684.562 719.402 683.46C721.53 682.359 723.904 681.808 726.525 681.808ZM726.525 708.76C728.576 708.76 730.419 708.266 732.052 707.278C733.724 706.291 735.034 704.904 735.984 703.119C736.934 701.333 737.409 699.301 737.409 697.022C737.409 694.742 736.934 692.71 735.984 690.925C735.034 689.139 733.724 687.772 732.052 686.822C730.419 685.834 728.576 685.341 726.525 685.341C724.474 685.341 722.612 685.834 720.941 686.822C719.308 687.772 718.016 689.139 717.066 690.925C716.117 692.71 715.642 694.742 715.642 697.022C715.642 699.301 716.117 701.333 717.066 703.119C718.016 704.904 719.308 706.291 720.941 707.278C722.612 708.266 724.474 708.76 726.525 708.76ZM764.602 682.776C767.375 682.776 769.844 683.403 772.01 684.657C774.213 685.872 775.922 687.601 777.138 689.842C778.353 692.045 778.961 694.572 778.961 697.421C778.961 700.346 778.315 702.948 777.024 705.227C775.77 707.468 774.004 709.216 771.725 710.469C769.445 711.723 766.824 712.35 763.861 712.35C758.885 712.35 755.029 710.602 752.294 707.107C749.559 703.613 748.191 698.788 748.191 692.634C748.191 686.214 749.407 681.295 751.838 677.876C754.307 674.457 758.144 672.14 763.348 670.924L776.796 667.847L777.48 671.551L764.83 674.457C760.537 675.407 757.384 677.097 755.371 679.529C753.358 681.922 752.256 685.474 752.066 690.184C753.282 687.867 754.972 686.062 757.137 684.771C759.303 683.441 761.791 682.776 764.602 682.776ZM763.975 708.988C766.064 708.988 767.926 708.513 769.559 707.563C771.231 706.576 772.522 705.208 773.434 703.461C774.384 701.713 774.859 699.738 774.859 697.535C774.859 695.331 774.403 693.394 773.491 691.722C772.579 690.051 771.288 688.759 769.616 687.848C767.983 686.898 766.102 686.423 763.975 686.423C761.848 686.423 759.948 686.898 758.277 687.848C756.644 688.759 755.352 690.051 754.402 691.722C753.491 693.394 753.035 695.331 753.035 697.535C753.035 699.738 753.491 701.713 754.402 703.461C755.352 705.208 756.663 706.576 758.334 707.563C760.005 708.513 761.886 708.988 763.975 708.988ZM814.015 682.036V712.008H810.14V706.538C809.077 708.361 807.614 709.786 805.753 710.811C803.891 711.799 801.764 712.293 799.371 712.293C795.42 712.293 792.305 711.21 790.026 709.045C787.785 706.842 786.664 703.632 786.664 699.415V682.036H790.71V699.016C790.71 702.169 791.488 704.562 793.046 706.196C794.603 707.829 796.845 708.646 799.77 708.646C802.923 708.646 805.411 707.696 807.234 705.797C809.058 703.859 809.969 701.181 809.969 697.763V682.036H814.015ZM863.062 682.036V712.008H859.016V699.529C855.559 701.048 852.16 701.808 848.817 701.808C845.208 701.808 842.397 700.991 840.383 699.358C838.37 697.687 837.363 695.198 837.363 691.893V682.036H841.409V691.666C841.409 693.907 842.131 695.616 843.574 696.794C845.018 697.933 847.012 698.503 849.557 698.503C852.368 698.503 855.521 697.763 859.016 696.281V682.036H863.062ZM911.931 681.808C915.692 681.808 918.636 682.89 920.763 685.056C922.928 687.221 924.011 690.412 924.011 694.629V712.008H919.965V695.027C919.965 691.912 919.206 689.538 917.686 687.905C916.205 686.271 914.096 685.455 911.361 685.455C908.246 685.455 905.796 686.423 904.011 688.361C902.225 690.26 901.332 692.9 901.332 696.281V712.008H897.287V695.027C897.287 691.912 896.527 689.538 895.008 687.905C893.526 686.271 891.399 685.455 888.626 685.455C885.549 685.455 883.098 686.423 881.275 688.361C879.49 690.26 878.597 692.9 878.597 696.281V712.008H874.551V682.036H878.426V687.506C879.49 685.682 880.971 684.277 882.871 683.289C884.77 682.302 886.954 681.808 889.423 681.808C891.931 681.808 894.096 682.34 895.919 683.403C897.781 684.467 899.167 686.043 900.079 688.133C901.18 686.157 902.757 684.619 904.808 683.517C906.898 682.378 909.272 681.808 911.931 681.808ZM946.958 712.293C944.071 712.293 941.469 711.647 939.151 710.355C936.834 709.026 935.011 707.202 933.681 704.885C932.352 702.568 931.687 699.947 931.687 697.022C931.687 694.097 932.352 691.476 933.681 689.158C935.011 686.841 936.834 685.037 939.151 683.745C941.469 682.454 944.071 681.808 946.958 681.808C949.845 681.808 952.447 682.454 954.764 683.745C957.082 685.037 958.886 686.841 960.178 689.158C961.507 691.476 962.172 694.097 962.172 697.022C962.172 699.947 961.507 702.568 960.178 704.885C958.886 707.202 957.082 709.026 954.764 710.355C952.447 711.647 949.845 712.293 946.958 712.293ZM946.958 708.703C949.085 708.703 950.985 708.228 952.656 707.278C954.365 706.291 955.695 704.904 956.645 703.119C957.594 701.333 958.069 699.301 958.069 697.022C958.069 694.742 957.594 692.71 956.645 690.925C955.695 689.139 954.365 687.772 952.656 686.822C950.985 685.834 949.085 685.341 946.958 685.341C944.831 685.341 942.912 685.834 941.203 686.822C939.531 687.772 938.202 689.139 937.214 690.925C936.264 692.71 935.79 694.742 935.79 697.022C935.79 699.301 936.264 701.333 937.214 703.119C938.202 704.904 939.531 706.291 941.203 707.278C942.912 708.228 944.831 708.703 946.958 708.703ZM1013.42 682.036V708.361C1013.42 713.451 1012.17 717.212 1009.66 719.643C1007.19 722.112 1003.45 723.347 998.438 723.347C995.665 723.347 993.025 722.929 990.518 722.093C988.049 721.296 986.035 720.175 984.478 718.732L986.529 715.655C987.973 716.946 989.72 717.953 991.771 718.675C993.861 719.396 996.045 719.757 998.324 719.757C1002.12 719.757 1004.92 718.865 1006.7 717.079C1008.49 715.332 1009.38 712.597 1009.38 708.874V705.056C1008.13 706.955 1006.47 708.399 1004.42 709.387C1002.41 710.374 1000.17 710.868 997.697 710.868C994.886 710.868 992.322 710.26 990.005 709.045C987.726 707.791 985.921 706.063 984.592 703.859C983.3 701.618 982.654 699.092 982.654 696.281C982.654 693.47 983.3 690.963 984.592 688.759C985.921 686.556 987.726 684.847 990.005 683.631C992.284 682.416 994.848 681.808 997.697 681.808C1000.24 681.808 1002.54 682.321 1004.59 683.346C1006.64 684.372 1008.3 685.853 1009.55 687.791V682.036H1013.42ZM998.096 707.278C1000.26 707.278 1002.22 706.823 1003.97 705.911C1005.71 704.961 1007.06 703.651 1008.01 701.979C1009 700.308 1009.49 698.408 1009.49 696.281C1009.49 694.154 1009 692.273 1008.01 690.64C1007.06 688.968 1005.71 687.677 1003.97 686.765C1002.26 685.815 1000.3 685.341 998.096 685.341C995.931 685.341 993.975 685.796 992.227 686.708C990.518 687.62 989.169 688.911 988.182 690.583C987.232 692.254 986.757 694.154 986.757 696.281C986.757 698.408 987.232 700.308 988.182 701.979C989.169 703.651 990.518 704.961 992.227 705.911C993.975 706.823 995.931 707.278 998.096 707.278ZM1037.67 708.703C1039.53 708.703 1041.24 708.38 1042.8 707.734C1044.39 707.05 1045.74 706.063 1046.84 704.771L1049.12 707.392C1047.79 708.988 1046.14 710.203 1044.16 711.039C1042.19 711.875 1040 712.293 1037.61 712.293C1034.53 712.293 1031.8 711.647 1029.41 710.355C1027.01 709.026 1025.15 707.202 1023.82 704.885C1022.49 702.568 1021.83 699.947 1021.83 697.022C1021.83 694.097 1022.45 691.476 1023.71 689.158C1025 686.841 1026.77 685.037 1029.01 683.745C1031.25 682.454 1033.79 681.808 1036.64 681.808C1039.3 681.808 1041.7 682.416 1043.82 683.631C1045.99 684.847 1047.7 686.537 1048.95 688.702C1050.24 690.868 1050.93 693.337 1051 696.11L1026.39 700.896C1027.15 703.328 1028.51 705.246 1030.49 706.652C1032.5 708.019 1034.9 708.703 1037.67 708.703ZM1036.64 685.284C1034.55 685.284 1032.67 685.777 1031 686.765C1029.37 687.715 1028.08 689.063 1027.13 690.811C1026.22 692.52 1025.76 694.496 1025.76 696.737C1025.76 697.307 1025.78 697.725 1025.82 697.99L1046.96 693.888C1046.5 691.381 1045.34 689.329 1043.48 687.734C1041.62 686.1 1039.34 685.284 1036.64 685.284ZM1083.24 682.036V712.008H1079.19V685.626H1064.84L1064.44 693.033C1064.13 699.263 1063.41 704.049 1062.27 707.392C1061.13 710.735 1059.1 712.407 1056.17 712.407C1055.38 712.407 1054.41 712.255 1053.27 711.951L1053.55 708.475C1054.24 708.627 1054.71 708.703 1054.98 708.703C1056.54 708.703 1057.71 707.981 1058.51 706.538C1059.31 705.094 1059.84 703.309 1060.11 701.181C1060.37 699.054 1060.6 696.243 1060.79 692.748L1061.3 682.036H1083.24ZM1121.98 682.036V712.008H1118.1V706.082C1116.89 708.095 1115.27 709.634 1113.26 710.697C1111.28 711.761 1109.04 712.293 1106.54 712.293C1103.73 712.293 1101.18 711.647 1098.9 710.355C1096.62 709.064 1094.84 707.259 1093.54 704.942C1092.25 702.625 1091.61 699.985 1091.61 697.022C1091.61 694.059 1092.25 691.419 1093.54 689.101C1094.84 686.784 1096.62 684.999 1098.9 683.745C1101.18 682.454 1103.73 681.808 1106.54 681.808C1108.97 681.808 1111.15 682.321 1113.09 683.346C1115.06 684.334 1116.68 685.796 1117.93 687.734V682.036H1121.98ZM1106.88 708.703C1108.97 708.703 1110.85 708.228 1112.52 707.278C1114.23 706.291 1115.56 704.904 1116.51 703.119C1117.5 701.333 1117.99 699.301 1117.99 697.022C1117.99 694.742 1117.5 692.71 1116.51 690.925C1115.56 689.139 1114.23 687.772 1112.52 686.822C1110.85 685.834 1108.97 685.341 1106.88 685.341C1104.75 685.341 1102.83 685.834 1101.12 686.822C1099.45 687.772 1098.12 689.139 1097.13 690.925C1096.18 692.71 1095.71 694.742 1095.71 697.022C1095.71 699.301 1096.18 701.333 1097.13 703.119C1098.12 704.904 1099.45 706.291 1101.12 707.278C1102.83 708.228 1104.75 708.703 1106.88 708.703ZM1146.07 708.703C1147.93 708.703 1149.64 708.38 1151.19 707.734C1152.79 707.05 1154.14 706.063 1155.24 704.771L1157.52 707.392C1156.19 708.988 1154.54 710.203 1152.56 711.039C1150.59 711.875 1148.4 712.293 1146.01 712.293C1142.93 712.293 1140.2 711.647 1137.8 710.355C1135.41 709.026 1133.55 707.202 1132.22 704.885C1130.89 702.568 1130.23 699.947 1130.23 697.022C1130.23 694.097 1130.85 691.476 1132.11 689.158C1133.4 686.841 1135.16 685.037 1137.41 683.745C1139.65 682.454 1142.19 681.808 1145.04 681.808C1147.7 681.808 1150.09 682.416 1152.22 683.631C1154.39 684.847 1156.1 686.537 1157.35 688.702C1158.64 690.868 1159.32 693.337 1159.4 696.11L1134.78 700.896C1135.54 703.328 1136.91 705.246 1138.89 706.652C1140.9 708.019 1143.29 708.703 1146.07 708.703ZM1145.04 685.284C1142.95 685.284 1141.07 685.777 1139.4 686.765C1137.77 687.715 1136.47 689.063 1135.52 690.811C1134.61 692.52 1134.16 694.496 1134.16 696.737C1134.16 697.307 1134.18 697.725 1134.21 697.99L1155.35 693.888C1154.9 691.381 1153.74 689.329 1151.88 687.734C1150.02 686.1 1147.74 685.284 1145.04 685.284ZM1209.12 682.036V712.008H1167.75V682.036H1171.79V708.475H1186.5V682.036H1190.54V708.475H1205.07V682.036H1209.12ZM1232.75 712.635C1228.65 712.635 1225.47 711.609 1223.23 709.558C1220.99 707.506 1219.87 704.638 1219.87 700.953V682.036H1223.92V694.515C1224.9 693.337 1226.25 692.406 1227.96 691.722C1229.71 691.039 1231.65 690.697 1233.77 690.697C1237.5 690.697 1240.38 691.647 1242.43 693.546C1244.52 695.445 1245.57 697.99 1245.57 701.181C1245.57 704.638 1244.43 707.411 1242.15 709.501C1239.87 711.59 1236.74 712.635 1232.75 712.635ZM1232.8 709.501C1235.5 709.501 1237.61 708.741 1239.13 707.221C1240.69 705.702 1241.47 703.727 1241.47 701.295C1241.47 699.016 1240.71 697.193 1239.19 695.825C1237.67 694.458 1235.52 693.774 1232.75 693.774C1230.7 693.774 1228.89 694.192 1227.33 695.027C1225.82 695.863 1224.68 697.022 1223.92 698.503V701.238C1223.92 703.822 1224.69 705.854 1226.25 707.335C1227.85 708.779 1230.03 709.501 1232.8 709.501ZM1253.34 706.082C1254.21 706.082 1254.94 706.386 1255.51 706.993C1256.07 707.563 1256.36 708.285 1256.36 709.159C1256.36 709.615 1256.28 710.108 1256.13 710.64C1256.02 711.172 1255.83 711.78 1255.56 712.464L1253.17 720.327H1250.43L1252.37 712.065C1251.76 711.875 1251.27 711.533 1250.89 711.039C1250.51 710.507 1250.32 709.881 1250.32 709.159C1250.32 708.285 1250.6 707.563 1251.17 706.993C1251.74 706.386 1252.47 706.082 1253.34 706.082ZM1307.68 682.036V708.361C1307.68 713.451 1306.43 717.212 1303.92 719.643C1301.45 722.112 1297.71 723.347 1292.69 723.347C1289.92 723.347 1287.28 722.929 1284.77 722.093C1282.3 721.296 1280.29 720.175 1278.73 718.732L1280.78 715.655C1282.23 716.946 1283.97 717.953 1286.03 718.675C1288.12 719.396 1290.3 719.757 1292.58 719.757C1296.38 719.757 1299.17 718.865 1300.96 717.079C1302.74 715.332 1303.63 712.597 1303.63 708.874V705.056C1302.38 706.955 1300.73 708.399 1298.68 709.387C1296.66 710.374 1294.42 710.868 1291.95 710.868C1289.14 710.868 1286.58 710.26 1284.26 709.045C1281.98 707.791 1280.18 706.063 1278.85 703.859C1277.55 701.618 1276.91 699.092 1276.91 696.281C1276.91 693.47 1277.55 690.963 1278.85 688.759C1280.18 686.556 1281.98 684.847 1284.26 683.631C1286.54 682.416 1289.1 681.808 1291.95 681.808C1294.5 681.808 1296.8 682.321 1298.85 683.346C1300.9 684.372 1302.55 685.853 1303.8 687.791V682.036H1307.68ZM1292.35 707.278C1294.52 707.278 1296.47 706.823 1298.22 705.911C1299.97 704.961 1301.32 703.651 1302.27 701.979C1303.25 700.308 1303.75 698.408 1303.75 696.281C1303.75 694.154 1303.25 692.273 1302.27 690.64C1301.32 688.968 1299.97 687.677 1298.22 686.765C1296.51 685.815 1294.55 685.341 1292.35 685.341C1290.19 685.341 1288.23 685.796 1286.48 686.708C1284.77 687.62 1283.42 688.911 1282.44 690.583C1281.49 692.254 1281.01 694.154 1281.01 696.281C1281.01 698.408 1281.49 700.308 1282.44 701.979C1283.42 703.651 1284.77 704.961 1286.48 705.911C1288.23 706.823 1290.19 707.278 1292.35 707.278ZM1331.92 708.703C1333.78 708.703 1335.49 708.38 1337.05 707.734C1338.65 707.05 1340 706.063 1341.1 704.771L1343.38 707.392C1342.05 708.988 1340.39 710.203 1338.42 711.039C1336.44 711.875 1334.26 712.293 1331.87 712.293C1328.79 712.293 1326.05 711.647 1323.66 710.355C1321.27 709.026 1319.41 707.202 1318.08 704.885C1316.75 702.568 1316.08 699.947 1316.08 697.022C1316.08 694.097 1316.71 691.476 1317.96 689.158C1319.25 686.841 1321.02 685.037 1323.26 683.745C1325.5 682.454 1328.05 681.808 1330.9 681.808C1333.56 681.808 1335.95 682.416 1338.08 683.631C1340.24 684.847 1341.95 686.537 1343.21 688.702C1344.5 690.868 1345.18 693.337 1345.26 696.11L1320.64 700.896C1321.4 703.328 1322.77 705.246 1324.74 706.652C1326.76 708.019 1329.15 708.703 1331.92 708.703ZM1330.9 685.284C1328.81 685.284 1326.93 685.777 1325.26 686.765C1323.62 687.715 1322.33 689.063 1321.38 690.811C1320.47 692.52 1320.01 694.496 1320.01 696.737C1320.01 697.307 1320.03 697.725 1320.07 697.99L1341.21 693.888C1340.76 691.381 1339.6 689.329 1337.74 687.734C1335.87 686.1 1333.59 685.284 1330.9 685.284ZM1377.5 682.036V712.008H1373.45V685.626H1359.09L1358.69 693.033C1358.39 699.263 1357.67 704.049 1356.53 707.392C1355.39 710.735 1353.35 712.407 1350.43 712.407C1349.63 712.407 1348.66 712.255 1347.52 711.951L1347.81 708.475C1348.49 708.627 1348.97 708.703 1349.23 708.703C1350.79 708.703 1351.97 707.981 1352.77 706.538C1353.56 705.094 1354.09 703.309 1354.36 701.181C1354.63 699.054 1354.85 696.243 1355.04 692.748L1355.56 682.036H1377.5ZM1416.23 682.036V712.008H1412.36V706.082C1411.14 708.095 1409.53 709.634 1407.51 710.697C1405.54 711.761 1403.3 712.293 1400.79 712.293C1397.98 712.293 1395.43 711.647 1393.16 710.355C1390.88 709.064 1389.09 707.259 1387.8 704.942C1386.51 702.625 1385.86 699.985 1385.86 697.022C1385.86 694.059 1386.51 691.419 1387.8 689.101C1389.09 686.784 1390.88 684.999 1393.16 683.745C1395.43 682.454 1397.98 681.808 1400.79 681.808C1403.22 681.808 1405.41 682.321 1407.34 683.346C1409.32 684.334 1410.93 685.796 1412.19 687.734V682.036H1416.23ZM1401.13 708.703C1403.22 708.703 1405.1 708.228 1406.77 707.278C1408.48 706.291 1409.81 704.904 1410.76 703.119C1411.75 701.333 1412.24 699.301 1412.24 697.022C1412.24 694.742 1411.75 692.71 1410.76 690.925C1409.81 689.139 1408.48 687.772 1406.77 686.822C1405.1 685.834 1403.22 685.341 1401.13 685.341C1399.01 685.341 1397.09 685.834 1395.38 686.822C1393.71 687.772 1392.38 689.139 1391.39 690.925C1390.44 692.71 1389.96 694.742 1389.96 697.022C1389.96 699.301 1390.44 701.333 1391.39 703.119C1392.38 704.904 1393.71 706.291 1395.38 707.278C1397.09 708.228 1399.01 708.703 1401.13 708.703ZM1454 682.036V712.008H1450.12V706.538C1449.06 708.361 1447.6 709.786 1445.73 710.811C1443.87 711.799 1441.75 712.293 1439.35 712.293C1435.4 712.293 1432.29 711.21 1430.01 709.045C1427.77 706.842 1426.65 703.632 1426.65 699.415V682.036H1430.69V699.016C1430.69 702.169 1431.47 704.562 1433.03 706.196C1434.58 707.829 1436.83 708.646 1439.75 708.646C1442.9 708.646 1445.39 707.696 1447.22 705.797C1449.04 703.859 1449.95 701.181 1449.95 697.763V682.036H1454ZM1440.32 677.762C1437.74 677.762 1435.69 677.116 1434.17 675.825C1432.65 674.533 1431.87 672.71 1431.83 670.355H1434.74C1434.77 671.836 1435.31 673.033 1436.33 673.944C1437.36 674.818 1438.69 675.255 1440.32 675.255C1441.95 675.255 1443.28 674.818 1444.31 673.944C1445.37 673.033 1445.92 671.836 1445.96 670.355H1448.87C1448.83 672.71 1448.03 674.533 1446.47 675.825C1444.96 677.116 1442.9 677.762 1440.32 677.762ZM1503.04 682.036V712.008H1499V699.529C1495.54 701.048 1492.14 701.808 1488.8 701.808C1485.19 701.808 1482.38 700.991 1480.36 699.358C1478.35 697.687 1477.34 695.198 1477.34 691.893V682.036H1481.39V691.666C1481.39 693.907 1482.11 695.616 1483.56 696.794C1485 697.933 1486.99 698.503 1489.54 698.503C1492.35 698.503 1495.5 697.763 1499 696.281V682.036H1503.04ZM1551.91 681.808C1555.67 681.808 1558.62 682.89 1560.74 685.056C1562.91 687.221 1563.99 690.412 1563.99 694.629V712.008H1559.95V695.027C1559.95 691.912 1559.19 689.538 1557.67 687.905C1556.19 686.271 1554.08 685.455 1551.34 685.455C1548.23 685.455 1545.78 686.423 1543.99 688.361C1542.21 690.26 1541.31 692.9 1541.31 696.281V712.008H1537.27V695.027C1537.27 691.912 1536.51 689.538 1534.99 687.905C1533.51 686.271 1531.38 685.455 1528.61 685.455C1525.53 685.455 1523.08 686.423 1521.26 688.361C1519.47 690.26 1518.58 692.9 1518.58 696.281V712.008H1514.53V682.036H1518.41V687.506C1519.47 685.682 1520.95 684.277 1522.85 683.289C1524.75 682.302 1526.94 681.808 1529.4 681.808C1531.91 681.808 1534.08 682.34 1535.9 683.403C1537.76 684.467 1539.15 686.043 1540.06 688.133C1541.16 686.157 1542.74 684.619 1544.79 683.517C1546.88 682.378 1549.25 681.808 1551.91 681.808ZM1586.94 712.293C1584.05 712.293 1581.45 711.647 1579.13 710.355C1576.82 709.026 1574.99 707.202 1573.66 704.885C1572.33 702.568 1571.67 699.947 1571.67 697.022C1571.67 694.097 1572.33 691.476 1573.66 689.158C1574.99 686.841 1576.82 685.037 1579.13 683.745C1581.45 682.454 1584.05 681.808 1586.94 681.808C1589.83 681.808 1592.43 682.454 1594.75 683.745C1597.06 685.037 1598.87 686.841 1600.16 689.158C1601.49 691.476 1602.15 694.097 1602.15 697.022C1602.15 699.947 1601.49 702.568 1600.16 704.885C1598.87 707.202 1597.06 709.026 1594.75 710.355C1592.43 711.647 1589.83 712.293 1586.94 712.293ZM1586.94 708.703C1589.07 708.703 1590.97 708.228 1592.64 707.278C1594.35 706.291 1595.68 704.904 1596.63 703.119C1597.58 701.333 1598.05 699.301 1598.05 697.022C1598.05 694.742 1597.58 692.71 1596.63 690.925C1595.68 689.139 1594.35 687.772 1592.64 686.822C1590.97 685.834 1589.07 685.341 1586.94 685.341C1584.81 685.341 1582.89 685.834 1581.18 686.822C1579.51 687.772 1578.18 689.139 1577.2 690.925C1576.25 692.71 1575.77 694.742 1575.77 697.022C1575.77 699.301 1576.25 701.333 1577.2 703.119C1578.18 704.904 1579.51 706.291 1581.18 707.278C1582.89 708.228 1584.81 708.703 1586.94 708.703ZM1650.21 682.036V712.008H1646.17V685.626H1631.81L1631.41 693.033C1631.11 699.263 1630.39 704.049 1629.25 707.392C1628.11 710.735 1626.07 712.407 1623.15 712.407C1622.35 712.407 1621.38 712.255 1620.24 711.951L1620.53 708.475C1621.21 708.627 1621.69 708.703 1621.95 708.703C1623.51 708.703 1624.69 707.981 1625.49 706.538C1626.28 705.094 1626.81 703.309 1627.08 701.181C1627.35 699.054 1627.57 696.243 1627.76 692.748L1628.28 682.036H1650.21ZM1687.47 681.808C1690.28 681.808 1692.81 682.454 1695.05 683.745C1697.33 685.037 1699.11 686.841 1700.41 689.158C1701.7 691.476 1702.34 694.097 1702.34 697.022C1702.34 699.947 1701.7 702.568 1700.41 704.885C1699.11 707.202 1697.33 709.026 1695.05 710.355C1692.81 711.647 1690.28 712.293 1687.47 712.293C1684.81 712.293 1682.4 711.723 1680.23 710.583C1678.07 709.406 1676.3 707.791 1674.94 705.74C1673.61 703.689 1672.83 701.333 1672.6 698.674H1665.76V712.008H1661.72V682.036H1665.76V694.97H1672.66C1672.96 692.387 1673.78 690.108 1675.11 688.133C1676.47 686.119 1678.22 684.562 1680.35 683.46C1682.48 682.359 1684.85 681.808 1687.47 681.808ZM1687.47 708.76C1689.52 708.76 1691.37 708.266 1693 707.278C1694.67 706.291 1695.98 704.904 1696.93 703.119C1697.88 701.333 1698.35 699.301 1698.35 697.022C1698.35 694.742 1697.88 692.71 1696.93 690.925C1695.98 689.139 1694.67 687.772 1693 686.822C1691.37 685.834 1689.52 685.341 1687.47 685.341C1685.42 685.341 1683.56 685.834 1681.89 686.822C1680.25 687.772 1678.96 689.139 1678.01 690.925C1677.06 692.71 1676.59 694.742 1676.59 697.022C1676.59 699.301 1677.06 701.333 1678.01 703.119C1678.96 704.904 1680.25 706.291 1681.89 707.278C1683.56 708.266 1685.42 708.76 1687.47 708.76ZM1725.55 682.776C1728.32 682.776 1730.79 683.403 1732.96 684.657C1735.16 685.872 1736.87 687.601 1738.08 689.842C1739.3 692.045 1739.91 694.572 1739.91 697.421C1739.91 700.346 1739.26 702.948 1737.97 705.227C1736.72 707.468 1734.95 709.216 1732.67 710.469C1730.39 711.723 1727.77 712.35 1724.81 712.35C1719.83 712.35 1715.98 710.602 1713.24 707.107C1710.51 703.613 1709.14 698.788 1709.14 692.634C1709.14 686.214 1710.35 681.295 1712.78 677.876C1715.25 674.457 1719.09 672.14 1724.29 670.924L1737.74 667.847L1738.43 671.551L1725.78 674.457C1721.48 675.407 1718.33 677.097 1716.32 679.529C1714.3 681.922 1713.2 685.474 1713.01 690.184C1714.23 687.867 1715.92 686.062 1718.08 684.771C1720.25 683.441 1722.74 682.776 1725.55 682.776ZM1724.92 708.988C1727.01 708.988 1728.87 708.513 1730.51 707.563C1732.18 706.576 1733.47 705.208 1734.38 703.461C1735.33 701.713 1735.8 699.738 1735.8 697.535C1735.8 695.331 1735.35 693.394 1734.44 691.722C1733.53 690.051 1732.23 688.759 1730.56 687.848C1728.93 686.898 1727.05 686.423 1724.92 686.423C1722.79 686.423 1720.89 686.898 1719.22 687.848C1717.59 688.759 1716.3 690.051 1715.35 691.722C1714.44 693.394 1713.98 695.331 1713.98 697.535C1713.98 699.738 1714.44 701.713 1715.35 703.461C1716.3 705.208 1717.61 706.576 1719.28 707.563C1720.95 708.513 1722.83 708.988 1724.92 708.988ZM1774.96 682.036V712.008H1771.09V706.538C1770.02 708.361 1768.56 709.786 1766.7 710.811C1764.84 711.799 1762.71 712.293 1760.32 712.293C1756.37 712.293 1753.25 711.21 1750.97 709.045C1748.73 706.842 1747.61 703.632 1747.61 699.415V682.036H1751.66V699.016C1751.66 702.169 1752.43 704.562 1753.99 706.196C1755.55 707.829 1757.79 708.646 1760.72 708.646C1763.87 708.646 1766.36 707.696 1768.18 705.797C1770 703.859 1770.92 701.181 1770.92 697.763V682.036H1774.96ZM1827.84 682.036V712.008H1786.47V682.036H1790.52V708.475H1805.22V682.036H1809.27V708.475H1823.8V682.036H1827.84ZM1851.47 712.635C1847.37 712.635 1844.2 711.609 1841.96 709.558C1839.72 707.506 1838.59 704.638 1838.59 700.953V682.036H1842.64V694.515C1843.63 693.337 1844.98 692.406 1846.69 691.722C1848.43 691.039 1850.37 690.697 1852.5 690.697C1856.22 690.697 1859.11 691.647 1861.16 693.546C1863.25 695.445 1864.29 697.99 1864.29 701.181C1864.29 704.638 1863.15 707.411 1860.87 709.501C1858.6 711.59 1855.46 712.635 1851.47 712.635ZM1851.53 709.501C1854.23 709.501 1856.34 708.741 1857.85 707.221C1859.41 705.702 1860.19 703.727 1860.19 701.295C1860.19 699.016 1859.43 697.193 1857.91 695.825C1856.39 694.458 1854.25 693.774 1851.47 693.774C1849.42 693.774 1847.62 694.192 1846.06 695.027C1844.54 695.863 1843.4 697.022 1842.64 698.503V701.238C1842.64 703.822 1843.42 705.854 1844.98 707.335C1846.57 708.779 1848.76 709.501 1851.53 709.501Z" fill="black"/>
<path d="M463.331 310.722L376.997 632.924L141.129 397.056L463.331 310.722Z" stroke="url(#paint0_angular_23_84)" stroke-width="50.1993"/>
<path fill-rule="evenodd" clip-rule="evenodd" d="M566.646 207.407L414.813 774.054L-0.00167899 359.24L566.646 207.407ZM556.934 217.119L13.2644 362.795L411.258 760.788L556.934 217.119Z" fill="url(#paint1_linear_23_84)"/>
<path d="M101.67 663.582L140.398 519.046L246.206 624.854L101.67 663.582Z" fill="url(#paint2_linear_23_84)"/>
<path d="M101.67 663.582L140.398 519.046L246.206 624.854L101.67 663.582Z" fill="url(#paint3_linear_23_84)"/>
<path d="M782.242 361.512H700.855V380.125C700.855 389.966 692.118 399.165 681.543 399.593H659.012V322.575L793.048 322.361C802.934 322.361 810.98 314.873 810.98 305.673C810.98 296.474 802.934 288.986 793.048 288.986H659.012V269.304C659.012 258.82 668.208 249.835 679.933 249.835C689.359 249.835 793.277 249.835 793.277 249.835C827.534 250.049 854.663 277.005 852.823 308.455C851.904 324.928 842.937 340.118 829.143 349.959C833.741 354.238 845.926 365.149 849.145 369.214C854.663 375.846 853.973 386.757 847.995 392.961C844.547 396.384 833.971 405.797 832.132 407.723L782.242 361.512Z" fill="black"/>
<path d="M997.345 249.835C1041.72 249.835 1077.81 283.638 1077.81 324.714C1077.81 366.004 1041.72 399.593 997.345 399.593H946.766C902.394 399.593 866.298 366.004 866.298 324.714C866.298 283.638 902.394 249.835 946.766 249.835H997.345ZM946.766 288.986C925.384 288.986 908.141 305.032 908.141 324.714C908.141 344.61 925.384 360.656 946.766 360.656H997.345C1018.5 360.656 1035.97 344.61 1035.97 324.714C1035.97 305.032 1018.5 288.986 997.345 288.986H946.766Z" fill="black"/>
<path d="M1168.12 250.049H1258.01C1269.51 250.049 1278.93 258.82 1278.93 269.517V288.986C1242.15 288.986 1205.13 288.986 1168.12 288.986C1146.28 288.986 1130.87 305.245 1129.72 322.789C1127.88 348.033 1148.58 359.372 1172.95 360.656H1258.01C1269.51 360.656 1278.93 369.428 1278.93 380.552V399.807C1242.15 399.807 1205.13 399.807 1168.12 399.807C1123.98 399.807 1087.88 366.218 1087.88 325.142C1087.65 284.493 1123.06 250.049 1168.12 250.049Z" fill="black"/>
<path d="M1338.9 250.049V333.272L1422.13 255.611C1430.17 248.123 1443.51 247.909 1451.78 255.611L1466.5 269.304L1406.95 324.928L1451.78 366.432C1459.83 374.134 1459.83 386.329 1451.78 394.031L1436.84 407.723L1377.29 352.312L1332.92 393.817C1319.36 406.439 1297.06 397.24 1297.06 380.338V269.517C1297.06 258.82 1306.25 250.263 1317.29 250.049H1338.9Z" fill="black"/>
<path d="M1478.87 399.807C1478.87 368.144 1478.87 336.909 1478.87 305.459H1644.86C1656.35 305.459 1665.78 314.017 1665.78 324.928V344.397H1520.71V360.656H1644.86C1656.35 360.656 1665.78 369.428 1665.78 380.338V399.807C1603.48 399.807 1541.17 399.807 1478.87 399.807ZM1478.87 288.986C1478.87 275.936 1478.87 262.885 1478.87 250.049H1644.86C1656.35 250.049 1665.78 258.82 1665.78 269.517V288.986C1603.48 288.986 1541.17 288.986 1478.87 288.986Z" fill="black"/>
<path d="M1770.92 399.593H1750V288.986H1675.51V269.304C1675.51 258.607 1684.7 249.835 1696.43 249.835C1752.99 249.835 1809.77 249.835 1866.56 249.835V270.373C1866.56 279.787 1857.14 288.986 1845.64 288.986H1791.84V380.125C1791.84 390.822 1782.65 399.593 1770.92 399.593Z" fill="black"/>
<path d="M817.654 606.467H659.012V586.963C659.012 576.675 666.301 569.387 676.377 567.673L798.145 567.458C798.145 562.1 798.145 556.742 798.145 551.169H659.012V476.366C659.012 465.649 667.587 456.862 678.52 456.862H837.162V476.366C837.162 488.369 827.086 495.871 817.654 495.871C770.49 495.871 745.193 495.871 698.029 495.871C698.029 501.443 698.029 506.802 698.029 512.16H837.162V586.963C837.162 597.679 828.373 606.467 817.654 606.467Z" fill="black"/>
<path d="M927.946 457.076H1011.77C1022.49 457.076 1031.28 465.864 1031.28 476.58V496.085C996.977 496.085 962.461 496.085 927.946 496.085C907.58 496.085 893.216 512.374 892.144 529.95C890.429 555.241 909.724 566.601 932.448 567.887H1011.77C1022.49 567.887 1031.28 576.675 1031.28 587.82V607.11C996.977 607.11 962.461 607.11 927.946 607.11C886.785 607.11 853.127 573.46 853.127 532.307C852.913 491.584 885.927 457.076 927.946 457.076Z" fill="black"/>
<path d="M1048.39 476.58C1048.39 466.292 1056.97 457.076 1067.26 457.076H1087.41V587.606C1087.41 597.251 1079.26 606.467 1069.4 606.896L1048.39 607.11V476.58Z" fill="black"/>
<path d="M1109.05 607.11C1109.05 575.389 1109.05 544.096 1109.05 512.589H1263.84C1274.55 512.589 1283.34 521.162 1283.34 532.093V551.598H1148.07V567.887H1263.84C1274.55 567.887 1283.34 576.675 1283.34 587.606V607.11C1225.25 607.11 1167.15 607.11 1109.05 607.11ZM1109.05 496.085C1109.05 483.01 1109.05 469.936 1109.05 457.076H1263.84C1274.55 457.076 1283.34 465.864 1283.34 476.58V496.085C1225.25 496.085 1167.15 496.085 1109.05 496.085Z" fill="black"/>
<path d="M1456.42 609.468C1448.7 609.468 1443.98 607.11 1437.77 601.323L1342.79 515.804V589.963C1342.79 600.68 1334.01 609.468 1323.29 609.468H1303.78V482.582C1303.78 466.292 1312.35 454.504 1329.07 454.504C1336.58 454.504 1341.51 457.076 1347.73 462.649L1442.91 548.168V474.008C1442.91 463.292 1451.7 454.504 1462.42 454.504H1481.93V581.176C1481.93 597.679 1473.14 609.468 1456.42 609.468Z" fill="black"/>
<path d="M1573.32 457.076H1657.15C1667.87 457.076 1676.66 465.864 1676.66 476.58V496.085C1642.36 496.085 1607.84 496.085 1573.32 496.085C1552.96 496.085 1538.6 512.374 1537.52 529.95C1535.81 555.241 1555.1 566.601 1577.83 567.887H1657.15C1667.87 567.887 1676.66 576.675 1676.66 587.82V607.11C1642.36 607.11 1607.84 607.11 1573.32 607.11C1532.16 607.11 1498.51 573.46 1498.51 532.307C1498.29 491.584 1531.31 457.076 1573.32 457.076Z" fill="black"/>
<path d="M1692.27 607.11C1692.27 575.389 1692.27 544.096 1692.27 512.589H1847.05C1857.77 512.589 1866.56 521.162 1866.56 532.093V551.598H1731.29V567.887H1847.05C1857.77 567.887 1866.56 576.675 1866.56 587.606V607.11C1808.46 607.11 1750.37 607.11 1692.27 607.11ZM1692.27 496.085C1692.27 483.01 1692.27 469.936 1692.27 457.076H1847.05C1857.77 457.076 1866.56 465.864 1866.56 476.58V496.085C1808.46 496.085 1750.37 496.085 1692.27 496.085Z" fill="black"/>
<defs>
<radialGradient id="paint0_angular_23_84" cx="0" cy="0" r="1" gradientUnits="userSpaceOnUse" gradientTransform="translate(327.152 446.901) rotate(-41.2656) scale(412.031)">
<stop stop-color="#FF007A"/>
<stop offset="1" stop-color="#B56AFF"/>
</radialGradient>
<linearGradient id="paint1_linear_23_84" x1="561.79" y1="212.263" x2="205.497" y2="581.292" gradientUnits="userSpaceOnUse">
<stop stop-color="#F80785"/>
<stop offset="1" stop-color="#AF53F8" stop-opacity="0"/>
</linearGradient>
<linearGradient id="paint2_linear_23_84" x1="101.67" y1="663.582" x2="223.846" y2="541.406" gradientUnits="userSpaceOnUse">
<stop stop-color="#00C2FF"/>
<stop offset="1" stop-color="#BDFF00"/>
</linearGradient>
<linearGradient id="paint3_linear_23_84" x1="301.689" y1="480.588" x2="23.8263" y2="724.401" gradientUnits="userSpaceOnUse">
<stop stop-color="#FF007A"/>
<stop offset="1" stop-color="#AB57FF"/>
</linearGradient>
</defs>
</svg>
