<svg width="18" height="21" viewBox="0 0 18 21" fill="none" xmlns="http://www.w3.org/2000/svg">
<path fill-rule="evenodd" clip-rule="evenodd" d="M7.86661 1.10876C8.22334 0.010857 9.77657 0.010874 10.1333 1.10876L11.5361 5.42602H16.0755C17.2299 5.42602 17.7099 6.90323 16.7759 7.58176L13.1035 10.25L14.5062 14.5672C14.8629 15.6651 13.6064 16.5781 12.6724 15.8996L8.99996 13.2313L5.32748 15.8996C4.39355 16.5781 3.13697 15.6651 3.49369 14.5672L4.89645 10.25L1.22398 7.58176C0.290045 6.90322 0.770032 5.42602 1.92442 5.42602H6.46385L7.86661 1.10876ZM8.99996 2.8793L7.91203 6.2276C7.7525 6.71859 7.29495 7.05102 6.77869 7.05102H3.25808L6.10631 9.12038C6.52398 9.42383 6.69874 9.96171 6.53921 10.4527L5.45128 13.801L8.29951 11.7316C8.71718 11.4282 9.28274 11.4282 9.7004 11.7316L12.5486 13.801L11.4607 10.4527C11.3012 9.96171 11.4759 9.42383 11.8936 9.12038L14.7418 7.05102H11.2212C10.705 7.05102 10.2474 6.71859 10.0879 6.2276L8.99996 2.8793Z" fill="#7D27EC"/>
<path fill-rule="evenodd" clip-rule="evenodd" d="M5.72319 19.4782C5.2747 19.4634 4.92314 19.0878 4.93795 18.6393L4.97371 17.5566C4.98853 17.1081 5.3641 16.7565 5.81259 16.7713C6.26108 16.7861 6.61264 17.1617 6.59783 17.6102L6.56207 18.6929C6.54726 19.1414 6.17168 19.493 5.72319 19.4782Z" fill="#7D27EC"/>
<path fill-rule="evenodd" clip-rule="evenodd" d="M12.2195 19.6927C11.771 19.6779 11.4195 19.3023 11.4343 18.8538L11.4701 17.7711C11.4849 17.3226 11.8604 16.971 12.3089 16.9859C12.7574 17.0007 13.109 17.3762 13.0942 17.8247L13.0584 18.9075C13.0436 19.356 12.668 19.7075 12.2195 19.6927Z" fill="#7D27EC"/>
<path fill-rule="evenodd" clip-rule="evenodd" d="M8.93559 20.6682C8.48711 20.6534 8.13554 20.2778 8.15036 19.8294L8.22188 17.6639C8.23669 17.2154 8.61227 16.8638 9.06075 16.8786C9.50924 16.8935 9.8608 17.269 9.84599 17.7175L9.77447 19.883C9.75966 20.3315 9.38408 20.6831 8.93559 20.6682Z" fill="#7D27EC"/>
</svg>
