<svg width="18" height="18" viewBox="0 0 18 18" fill="none" xmlns="http://www.w3.org/2000/svg">
<path fill-rule="evenodd" clip-rule="evenodd" d="M9 16.5C13.1421 16.5 16.5 13.1421 16.5 9C16.5 4.85786 13.1421 1.5 9 1.5C4.85786 1.5 1.5 4.85786 1.5 9C1.5 13.1421 4.85786 16.5 9 16.5ZM9 18C13.9706 18 18 13.9706 18 9C18 4.02944 13.9706 0 9 0C4.02944 0 0 4.02944 0 9C0 13.9706 4.02944 18 9 18Z" fill="#A9A9A9"/>
<path fill-rule="evenodd" clip-rule="evenodd" d="M6.25 6.88034C6.25 5.32313 7.68116 4.25 9.19446 4.25H9.29712C9.61913 4.25 9.94005 4.30684 10.2407 4.41925C11.0141 4.70841 11.5523 5.31654 11.7061 6.04346C11.8616 6.77858 11.6033 7.54974 10.9616 8.08289L10.3049 8.62852C10.0092 8.87424 9.87192 9.18403 9.87192 9.47627V10C9.87192 10.4142 9.53613 10.75 9.12192 10.75C8.70771 10.75 8.37192 10.4142 8.37192 10V9.47627C8.37192 8.69475 8.7424 7.97659 9.34631 7.47481L10.003 6.92918C10.2306 6.74006 10.2751 6.52655 10.2385 6.35384C10.2003 6.17292 10.0518 5.95005 9.71535 5.82425C9.58646 5.77606 9.44377 5.75 9.29712 5.75H9.19446C8.28382 5.75 7.75 6.36058 7.75 6.88034V6.98347C7.75 7.39768 7.41421 7.73347 7 7.73347C6.58579 7.73347 6.25 7.39768 6.25 6.98347V6.88034Z" fill="#A9A9A9"/>
<path d="M8 12C8 11.4477 8.44772 11 9 11C9.55228 11 10 11.4477 10 12C10 12.5523 9.55228 13 9 13C8.44772 13 8 12.5523 8 12Z" fill="#A9A9A9"/>
</svg>
