<svg width="24" height="24" viewBox="0 0 24 24" fill="none" xmlns="http://www.w3.org/2000/svg">
<path fill-rule="evenodd" clip-rule="evenodd" d="M5.65791 3.454C6.16391 3.274 6.67791 3.25 7.10291 3.25H7.71491C8.74791 3.25 9.75491 3.57 10.5979 4.167L11.0999 4.522C11.3631 4.70823 11.6775 4.80824 11.9999 4.80824C12.3223 4.80824 12.6368 4.70823 12.8999 4.522L13.4019 4.167C14.2449 3.57036 15.2522 3.24997 16.2849 3.25H16.8969C17.3229 3.25 17.8369 3.274 18.3419 3.454C19.7849 3.966 20.9259 5.142 21.6779 7.045C22.4219 8.929 22.8039 11.565 22.7439 15.115C22.7309 15.865 22.6379 16.705 22.3489 17.461C22.0579 18.228 21.5469 18.951 20.6889 19.361C20.1534 19.618 19.5669 19.751 18.9729 19.75C18.2845 19.759 17.6088 19.5641 17.0309 19.19C16.5589 18.88 16.1459 18.48 15.7929 18.138C15.7506 18.0973 15.7083 18.0566 15.6659 18.016C15.2619 17.626 14.9209 17.323 14.5429 17.126C14.0661 16.879 13.5369 16.75 12.9999 16.75H10.9999C10.4625 16.7504 9.93303 16.8797 9.45591 17.127C9.07791 17.323 8.73691 17.627 8.33291 18.017L8.20591 18.139C7.85291 18.48 7.43991 18.881 6.96791 19.191C6.38987 19.5648 5.71421 19.7593 5.02591 19.75C4.43186 19.7507 3.84531 19.6174 3.30991 19.36C2.45091 18.95 1.94091 18.228 1.64991 17.461C1.36091 16.705 1.26791 15.865 1.25491 15.115C1.19491 11.565 1.57691 8.929 2.32091 7.045C3.07291 5.142 4.21491 3.965 5.65791 3.454ZM7.10291 4.75C6.71891 4.75 6.41591 4.777 6.15991 4.867C5.21991 5.201 4.35091 5.992 3.71691 7.597C3.07591 9.22 2.69691 11.633 2.75591 15.09C2.76691 15.752 2.85091 16.398 3.05191 16.927C3.24991 17.447 3.54191 17.809 3.95791 18.007C4.2912 18.168 4.65676 18.2511 5.02691 18.25C5.51191 18.25 5.87491 18.114 6.14691 17.936C6.49191 17.709 6.79991 17.413 7.16891 17.056L7.29291 16.936C7.69391 16.55 8.17291 16.102 8.76591 15.796C9.45641 15.4376 10.2229 15.2503 11.0009 15.25H12.9999C13.7779 15.25 14.5439 15.437 15.2349 15.795C15.8269 16.102 16.3069 16.55 16.7079 16.935L16.8319 17.055C17.2019 17.413 17.5089 17.709 17.8549 17.935C18.1259 18.114 18.4889 18.25 18.9749 18.25C19.3819 18.25 19.7369 18.154 20.0429 18.008C20.4589 17.808 20.7509 17.447 20.9489 16.928C21.1499 16.398 21.2339 15.752 21.2449 15.09C21.3029 11.633 20.9249 9.22 20.2839 7.596C19.6499 5.992 18.7809 5.201 17.8409 4.867C17.5849 4.777 17.2809 4.75 16.8979 4.75H16.2859C15.5639 4.75 14.8589 4.974 14.2689 5.391L13.7669 5.747C13.2505 6.11245 12.6335 6.30871 12.0009 6.30871C11.3683 6.30871 10.7513 6.11245 10.2349 5.747L9.73291 5.391C9.1431 4.97377 8.43838 4.74981 7.71591 4.75H7.10291ZM7.49991 8.25C7.69883 8.25 7.88959 8.32902 8.03024 8.46967C8.1709 8.61032 8.24991 8.80109 8.24991 9V9.75H8.99991C9.19883 9.75 9.38959 9.82902 9.53024 9.96967C9.6709 10.1103 9.74991 10.3011 9.74991 10.5C9.74991 10.6989 9.6709 10.8897 9.53024 11.0303C9.38959 11.171 9.19883 11.25 8.99991 11.25H8.24991V12C8.24991 12.1989 8.1709 12.3897 8.03024 12.5303C7.88959 12.671 7.69883 12.75 7.49991 12.75C7.301 12.75 7.11024 12.671 6.96958 12.5303C6.82893 12.3897 6.74991 12.1989 6.74991 12V11.25H5.99991C5.801 11.25 5.61024 11.171 5.46958 11.0303C5.32893 10.8897 5.24991 10.6989 5.24991 10.5C5.24991 10.3011 5.32893 10.1103 5.46958 9.96967C5.61024 9.82902 5.801 9.75 5.99991 9.75H6.74991V9C6.74991 8.80109 6.82893 8.61032 6.96958 8.46967C7.11024 8.32902 7.301 8.25 7.49991 8.25Z" fill="white"/>
<path d="M19 10.25C19 10.4489 18.921 10.6397 18.7803 10.7803C18.6397 10.921 18.4489 11 18.25 11C18.0511 11 17.8603 10.921 17.7197 10.7803C17.579 10.6397 17.5 10.4489 17.5 10.25C17.5 10.0511 17.579 9.86032 17.7197 9.71967C17.8603 9.57902 18.0511 9.5 18.25 9.5C18.4489 9.5 18.6397 9.57902 18.7803 9.71967C18.921 9.86032 19 10.0511 19 10.25ZM16 10.25C16 10.4489 15.921 10.6397 15.7803 10.7803C15.6397 10.921 15.4489 11 15.25 11C15.0511 11 14.8603 10.921 14.7197 10.7803C14.579 10.6397 14.5 10.4489 14.5 10.25C14.5 10.0511 14.579 9.86032 14.7197 9.71967C14.8603 9.57902 15.0511 9.5 15.25 9.5C15.4489 9.5 15.6397 9.57902 15.7803 9.71967C15.921 9.86032 16 10.0511 16 10.25ZM16.75 8C16.9489 8 17.1397 8.07902 17.2803 8.21967C17.421 8.36032 17.5 8.55109 17.5 8.75C17.5 8.94891 17.421 9.13968 17.2803 9.28033C17.1397 9.42098 16.9489 9.5 16.75 9.5C16.5511 9.5 16.3603 9.42098 16.2197 9.28033C16.079 9.13968 16 8.94891 16 8.75C16 8.55109 16.079 8.36032 16.2197 8.21967C16.3603 8.07902 16.5511 8 16.75 8ZM16.75 11C16.8485 11 16.946 11.0194 17.037 11.0571C17.128 11.0948 17.2107 11.15 17.2803 11.2197C17.35 11.2893 17.4052 11.372 17.4429 11.463C17.4806 11.554 17.5 11.6515 17.5 11.75C17.5 11.8485 17.4806 11.946 17.4429 12.037C17.4052 12.128 17.35 12.2107 17.2803 12.2803C17.2107 12.35 17.128 12.4052 17.037 12.4429C16.946 12.4806 16.8485 12.5 16.75 12.5C16.5511 12.5 16.3603 12.421 16.2197 12.2803C16.079 12.1397 16 11.9489 16 11.75C16 11.5511 16.079 11.3603 16.2197 11.2197C16.3603 11.079 16.5511 11 16.75 11Z" fill="white"/>
</svg>
