<svg width="513" height="157" viewBox="0 0 513 157" fill="none" xmlns="http://www.w3.org/2000/svg">
<g clip-path="url(#clip0_126_2347)">
<path fill-rule="evenodd" clip-rule="evenodd" d="M137.064 19.0739L107.159 130.683L25.4553 48.9794L137.064 19.0739ZM52.102 56.1193L100.019 104.036L117.557 38.5806L52.102 56.1193Z" fill="url(#paint0_angular_126_2347)"/>
<path fill-rule="evenodd" clip-rule="evenodd" d="M155.699 0.43913L113.98 156.138L0.000143706 42.1585L155.699 0.43913ZM153.031 3.10757L3.6453 43.1353L113.003 152.493L153.031 3.10757Z" fill="url(#paint1_linear_126_2347)"/>
<path d="M27.9364 125.783L38.5779 86.0688L67.651 115.142L27.9364 125.783Z" fill="url(#paint2_linear_126_2347)"/>
<path d="M214.939 49.2356H192.576V54.3499C192.576 57.054 190.175 59.5817 187.27 59.6993H181.079V38.5368L217.908 38.478C220.624 38.478 222.835 36.4205 222.835 33.8928C222.835 31.365 220.624 29.3076 217.908 29.3076H181.079V23.8993C181.079 21.0189 183.606 18.5499 186.827 18.5499C189.417 18.5499 217.971 18.5499 217.971 18.5499C227.384 18.6087 234.838 26.0156 234.333 34.657C234.08 39.1834 231.616 43.3571 227.826 46.0612C229.089 47.2369 232.438 50.235 233.322 51.3519C234.838 53.1742 234.649 56.1722 233.006 57.877C232.059 58.8175 229.153 61.4041 228.647 61.9331L214.939 49.2356Z" fill="white"/>
<path d="M274.043 18.5499C286.236 18.5499 296.154 27.8379 296.154 39.1246C296.154 50.4701 286.236 59.6993 274.043 59.6993H260.145C247.953 59.6993 238.035 50.4701 238.035 39.1246C238.035 27.8379 247.953 18.5499 260.145 18.5499H274.043ZM260.145 29.3076C254.27 29.3076 249.533 33.7164 249.533 39.1246C249.533 44.5916 254.27 49.0005 260.145 49.0005H274.043C279.855 49.0005 284.656 44.5916 284.656 39.1246C284.656 33.7164 279.855 29.3076 274.043 29.3076H260.145Z" fill="white"/>
<path d="M320.967 18.6087H345.667C348.826 18.6087 351.416 21.0189 351.416 23.9581V29.3076C341.308 29.3076 331.138 29.3076 320.967 29.3076C314.966 29.3076 310.733 33.7752 310.417 38.5956C309.912 45.5322 315.597 48.6478 322.294 49.0005H345.667C348.826 49.0005 351.416 51.4106 351.416 54.4675V59.7581C341.308 59.7581 331.138 59.7581 320.967 59.7581C308.838 59.7581 298.92 50.5289 298.92 39.2422C298.857 28.0731 308.585 18.6087 320.967 18.6087Z" fill="white"/>
<path d="M367.893 18.6087V41.476L390.761 20.1371C392.972 18.0797 396.636 18.0209 398.91 20.1371L402.953 23.8993L386.592 39.1834L398.91 50.5877C401.122 52.7039 401.122 56.0547 398.91 58.1709L394.804 61.9331L378.443 46.7079L366.25 58.1121C362.523 61.5804 356.396 59.0527 356.396 54.4087V23.9581C356.396 21.0189 358.923 18.6675 361.955 18.6087H367.893Z" fill="white"/>
<path d="M406.352 59.7581C406.352 51.0579 406.352 42.4754 406.352 33.834H451.962C455.121 33.834 457.711 36.1854 457.711 39.1834V44.5328H417.849V49.0005H451.962C455.121 49.0005 457.711 51.4106 457.711 54.4087V59.7581C440.591 59.7581 423.472 59.7581 406.352 59.7581ZM406.352 29.3076C406.352 25.7217 406.352 22.1358 406.352 18.6087H451.962C455.121 18.6087 457.711 21.0189 457.711 23.9581V29.3076C440.591 29.3076 423.472 29.3076 406.352 29.3076Z" fill="white"/>
<path d="M486.6 59.6993H480.852V29.3076H460.384V23.8993C460.384 20.9601 462.911 18.5499 466.133 18.5499C481.673 18.5499 497.276 18.5499 512.88 18.5499V24.1933C512.88 26.7798 510.29 29.3076 507.131 29.3076H492.349V54.3499C492.349 57.2891 489.822 59.6993 486.6 59.6993Z" fill="white"/>
<path d="M224.669 116.543H181.079V111.184C181.079 108.357 183.081 106.354 185.85 105.883L219.309 105.824C219.309 104.352 219.309 102.88 219.309 101.348H181.079V80.7946C181.079 77.8499 183.435 75.4353 186.439 75.4353H230.03V80.7946C230.03 84.0926 227.261 86.1539 224.669 86.1539C211.71 86.1539 204.759 86.1539 191.8 86.1539C191.8 87.6851 191.8 89.1574 191.8 90.6298H230.03V111.184C230.03 114.128 227.614 116.543 224.669 116.543Z" fill="white"/>
<path d="M254.974 75.4942H278.007C280.952 75.4942 283.367 77.9088 283.367 80.8535V86.2128C273.942 86.2128 264.458 86.2128 254.974 86.2128C249.378 86.2128 245.432 90.6887 245.137 95.5179C244.666 102.467 249.967 105.589 256.211 105.942H278.007C280.952 105.942 283.367 108.357 283.367 111.419V116.719C273.942 116.719 264.458 116.719 254.974 116.719C243.664 116.719 234.416 107.473 234.416 96.1657C234.357 84.976 243.429 75.4942 254.974 75.4942Z" fill="white"/>
<path d="M288.069 80.8535C288.069 78.0266 290.426 75.4942 293.253 75.4942H298.79V111.36C298.79 114.01 296.552 116.543 293.842 116.661L288.069 116.719V80.8535Z" fill="white"/>
<path d="M304.737 116.719C304.737 108.003 304.737 99.4049 304.737 90.7475H347.268C350.213 90.7475 352.628 93.1033 352.628 96.1068V101.466H315.458V105.942H347.268C350.213 105.942 352.628 108.357 352.628 111.36V116.719C336.665 116.719 320.701 116.719 304.737 116.719ZM304.737 86.2128C304.737 82.6203 304.737 79.0278 304.737 75.4942H347.268C350.213 75.4942 352.628 77.9088 352.628 80.8535V86.2128C336.665 86.2128 320.701 86.2128 304.737 86.2128Z" fill="white"/>
<path d="M400.184 117.367C398.063 117.367 396.767 116.719 395.059 115.129L368.963 91.6309V112.008C368.963 114.953 366.548 117.367 363.603 117.367H358.243V82.5025C358.243 78.0266 360.599 74.7875 365.193 74.7875C367.255 74.7875 368.61 75.4942 370.318 77.0254L396.473 100.524V80.1468C396.473 77.2021 398.888 74.7875 401.833 74.7875H407.193V109.593C407.193 114.128 404.778 117.367 400.184 117.367Z" fill="white"/>
<path d="M432.307 75.4942H455.339C458.284 75.4942 460.699 77.9088 460.699 80.8535V86.2128C451.274 86.2128 441.79 86.2128 432.307 86.2128C426.711 86.2128 422.764 90.6887 422.469 95.5179C421.998 102.467 427.3 105.589 433.544 105.942H455.339C458.284 105.942 460.699 108.357 460.699 111.419V116.719C451.274 116.719 441.79 116.719 432.307 116.719C420.997 116.719 411.748 107.473 411.748 96.1657C411.69 84.976 420.761 75.4942 432.307 75.4942Z" fill="white"/>
<path d="M464.989 116.719C464.989 108.003 464.989 99.4049 464.989 90.7475H507.519C510.465 90.7475 512.88 93.1033 512.88 96.1068V101.466H475.71V105.942H507.519C510.465 105.942 512.88 108.357 512.88 111.36V116.719C496.916 116.719 480.953 116.719 464.989 116.719ZM464.989 86.2128C464.989 82.6203 464.989 79.0278 464.989 75.4942H507.519C510.465 75.4942 512.88 77.9088 512.88 80.8535V86.2128C496.916 86.2128 480.953 86.2128 464.989 86.2128Z" fill="white"/>
</g>
<defs>
<radialGradient id="paint0_angular_126_2347" cx="0" cy="0" r="1" gradientUnits="userSpaceOnUse" gradientTransform="translate(89.8927 66.2453) rotate(-41.2656) scale(113.215 113.215)">
<stop stop-color="#7D27EC"/>
<stop offset="1" stop-color="#CB98FF"/>
</radialGradient>
<linearGradient id="paint1_linear_126_2347" x1="154.365" y1="1.77335" x2="56.4655" y2="103.172" gradientUnits="userSpaceOnUse">
<stop stop-color="#7D27EC"/>
<stop offset="1" stop-color="#AF53F8" stop-opacity="0"/>
</linearGradient>
<linearGradient id="paint2_linear_126_2347" x1="82.8963" y1="75.5014" x2="6.54723" y2="142.495" gradientUnits="userSpaceOnUse">
<stop stop-color="#933FFF"/>
<stop offset="1" stop-color="#AB57FF"/>
</linearGradient>
<clipPath id="clip0_126_2347">
<rect width="513" height="155.246" fill="white" transform="translate(0 0.876831)"/>
</clipPath>
</defs>
</svg>
