<svg width="153" height="47" viewBox="0 0 153 47" fill="none" xmlns="http://www.w3.org/2000/svg">
<g clip-path="url(#clip0_126_2457)">
<path fill-rule="evenodd" clip-rule="evenodd" d="M40.8788 5.42718L31.9596 38.714L7.59193 14.3464L40.8788 5.42718ZM15.5392 16.4758L29.8301 30.7668L35.061 11.245L15.5392 16.4758Z" fill="url(#paint0_angular_126_2457)"/>
<path fill-rule="evenodd" clip-rule="evenodd" d="M46.4366 -0.130549L33.994 46.306L4.82138e-05 12.3121L46.4366 -0.130549ZM45.6407 0.665301L1.0872 12.6034L33.7027 45.2188L45.6407 0.665301Z" fill="url(#paint1_linear_126_2457)"/>
<path d="M8.33192 37.2528L11.5057 25.4081L20.1766 34.079L8.33192 37.2528Z" fill="url(#paint2_linear_126_2457)"/>
<path d="M64.1046 14.4228H57.4349V15.9481C57.4349 16.7546 56.719 17.5085 55.8523 17.5436H54.0059V11.2319L64.9901 11.2144C65.8002 11.2144 66.4597 10.6008 66.4597 9.84687C66.4597 9.09298 65.8002 8.47935 64.9901 8.47935H54.0059V6.86638C54.0059 6.00729 54.7595 5.27094 55.7204 5.27094C56.4929 5.27094 65.0089 5.27094 65.0089 5.27094C67.8162 5.28847 70.0394 7.49754 69.8887 10.0748C69.8133 11.4248 69.0785 12.6696 67.9481 13.4761C68.3249 13.8267 69.3235 14.7209 69.5872 15.054C70.0394 15.5975 69.9829 16.4916 69.493 17.0001C69.2104 17.2806 68.3437 18.052 68.193 18.2098L64.1046 14.4228Z" fill="black"/>
<path d="M81.7322 5.27094C85.3685 5.27094 88.3265 8.04104 88.3265 11.4072C88.3265 14.791 85.3685 17.5436 81.7322 17.5436H77.5872C73.9509 17.5436 70.9929 14.791 70.9929 11.4072C70.9929 8.04104 73.9509 5.27094 77.5872 5.27094H81.7322ZM77.5872 8.47935C75.835 8.47935 74.422 9.79427 74.422 11.4072C74.422 13.0378 75.835 14.3527 77.5872 14.3527H81.7322C83.4656 14.3527 84.8975 13.0378 84.8975 11.4072C84.8975 9.79427 83.4656 8.47935 81.7322 8.47935H77.5872Z" fill="black"/>
<path d="M95.727 5.28847H103.094C104.036 5.28847 104.808 6.00729 104.808 6.88391V8.47935C101.794 8.47935 98.7603 8.47935 95.727 8.47935C93.9371 8.47935 92.6747 9.81181 92.5805 11.2495C92.4298 13.3183 94.1255 14.2475 96.1226 14.3527H103.094C104.036 14.3527 104.808 15.0715 104.808 15.9832V17.5611C101.794 17.5611 98.7603 17.5611 95.727 17.5611C92.1095 17.5611 89.1515 14.8085 89.1515 11.4423C89.1327 8.11117 92.0342 5.28847 95.727 5.28847Z" fill="black"/>
<path d="M109.722 5.28847V12.1085L116.543 5.74431C117.202 5.13068 118.295 5.11314 118.973 5.74431L120.179 6.86638L115.299 11.4248L118.973 14.826C119.633 15.4572 119.633 16.4566 118.973 17.0877L117.749 18.2098L112.869 13.6689L109.233 17.0702C108.121 18.1046 106.293 17.3507 106.293 15.9656V6.88391C106.293 6.00729 107.047 5.306 107.951 5.28847H109.722Z" fill="black"/>
<path d="M121.193 17.5611C121.193 14.9663 121.193 12.4066 121.193 9.82934H134.796C135.738 9.82934 136.51 10.5306 136.51 11.4248V13.0202H124.622V14.3527H134.796C135.738 14.3527 136.51 15.0715 136.51 15.9656V17.5611C131.404 17.5611 126.299 17.5611 121.193 17.5611ZM121.193 8.47935C121.193 7.40988 121.193 6.34041 121.193 5.28847H134.796C135.738 5.28847 136.51 6.00729 136.51 6.88391V8.47935C131.404 8.47935 126.299 8.47935 121.193 8.47935Z" fill="black"/>
<path d="M145.126 17.5436H143.412V8.47935H137.307V6.86638C137.307 5.98976 138.061 5.27094 139.022 5.27094C143.657 5.27094 148.31 5.27094 152.964 5.27094V6.95404C152.964 7.72546 152.192 8.47935 151.25 8.47935H146.841V15.9481C146.841 16.8247 146.087 17.5436 145.126 17.5436Z" fill="black"/>
<path d="M67.0065 34.4969H54.0059V32.8985C54.0059 32.0554 54.6032 31.4582 55.4289 31.3177L65.4078 31.3001C65.4078 30.861 65.4078 30.4219 65.4078 29.9652H54.0059V23.8351C54.0059 22.9569 54.7086 22.2367 55.6046 22.2367H68.6053V23.8351C68.6053 24.8187 67.7796 25.4335 67.0065 25.4335C63.1415 25.4335 61.0684 25.4335 57.2033 25.4335C57.2033 25.8902 57.2033 26.3293 57.2033 26.7684H68.6053V32.8985C68.6053 33.7767 67.885 34.4969 67.0065 34.4969Z" fill="black"/>
<path d="M76.045 22.2543H82.9142C83.7926 22.2543 84.513 22.9744 84.513 23.8527V25.4511C81.702 25.4511 78.8735 25.4511 76.045 25.4511C74.376 25.4511 73.1989 26.786 73.111 28.2263C72.9705 30.2989 74.5516 31.2298 76.4139 31.3352H82.9142C83.7926 31.3352 84.513 32.0554 84.513 32.9687V34.5496C81.702 34.5496 78.8735 34.5496 76.045 34.5496C72.6718 34.5496 69.9136 31.7919 69.9136 28.4195C69.896 25.0822 72.6015 22.2543 76.045 22.2543Z" fill="black"/>
<path d="M85.9154 23.8527C85.9154 23.0096 86.6181 22.2543 87.4614 22.2543H89.1129V32.9512C89.1129 33.7416 88.4453 34.4969 87.6371 34.532L85.9154 34.5496V23.8527Z" fill="black"/>
<path d="M90.8866 34.5496C90.8866 31.95 90.8866 29.3855 90.8866 26.8035H103.571C104.449 26.8035 105.17 27.5061 105.17 28.4019V30.0003H94.0841V31.3352H103.571C104.449 31.3352 105.17 32.0554 105.17 32.9512V34.5496C100.409 34.5496 95.6476 34.5496 90.8866 34.5496ZM90.8866 25.4511C90.8866 24.3796 90.8866 23.3082 90.8866 22.2543H103.571C104.449 22.2543 105.17 22.9744 105.17 23.8527V25.4511C100.409 25.4511 95.6476 25.4511 90.8866 25.4511Z" fill="black"/>
<path d="M119.353 34.7428C118.721 34.7428 118.334 34.5496 117.825 34.0753L110.042 27.067V33.1444C110.042 34.0226 109.321 34.7428 108.443 34.7428H106.844V24.3445C106.844 23.0096 107.547 22.0435 108.917 22.0435C109.532 22.0435 109.936 22.2543 110.446 22.711L118.246 29.7193V23.6419C118.246 22.7637 118.966 22.0435 119.845 22.0435H121.444V32.4242C121.444 33.7767 120.723 34.7428 119.353 34.7428Z" fill="black"/>
<path d="M128.934 22.2543H135.803C136.681 22.2543 137.402 22.9744 137.402 23.8527V25.4511C134.591 25.4511 131.762 25.4511 128.934 25.4511C127.265 25.4511 126.087 26.786 126 28.2263C125.859 30.2989 127.44 31.2298 129.302 31.3352H135.803C136.681 31.3352 137.402 32.0554 137.402 32.9687V34.5496C134.591 34.5496 131.762 34.5496 128.934 34.5496C125.56 34.5496 122.802 31.7919 122.802 28.4195C122.785 25.0822 125.49 22.2543 128.934 22.2543Z" fill="black"/>
<path d="M138.681 34.5496C138.681 31.95 138.681 29.3855 138.681 26.8035H151.365C152.244 26.8035 152.964 27.5061 152.964 28.4019V30.0003H141.878V31.3352H151.365C152.244 31.3352 152.964 32.0554 152.964 32.9512V34.5496C148.203 34.5496 143.442 34.5496 138.681 34.5496ZM138.681 25.4511C138.681 24.3796 138.681 23.3082 138.681 22.2543H151.365C152.244 22.2543 152.964 22.9744 152.964 23.8527V25.4511C148.203 25.4511 143.442 25.4511 138.681 25.4511Z" fill="black"/>
</g>
<defs>
<radialGradient id="paint0_angular_126_2457" cx="0" cy="0" r="1" gradientUnits="userSpaceOnUse" gradientTransform="translate(26.8101 19.4959) rotate(-41.2656) scale(33.7658)">
<stop stop-color="#7D27EC"/>
<stop offset="1" stop-color="#CB98FF"/>
</radialGradient>
<linearGradient id="paint1_linear_126_2457" x1="46.0387" y1="0.267376" x2="16.8406" y2="30.5092" gradientUnits="userSpaceOnUse">
<stop stop-color="#7D27EC"/>
<stop offset="1" stop-color="#AF53F8" stop-opacity="0"/>
</linearGradient>
<linearGradient id="paint2_linear_126_2457" x1="24.7235" y1="22.2565" x2="1.95269" y2="42.2369" gradientUnits="userSpaceOnUse">
<stop stop-color="#933FFF"/>
<stop offset="1" stop-color="#AB57FF"/>
</linearGradient>
<clipPath id="clip0_126_2457">
<rect width="153" height="46.3016" fill="white"/>
</clipPath>
</defs>
</svg>
