<svg width="1440" height="800" viewBox="0 0 1440 800" fill="none" xmlns="http://www.w3.org/2000/svg">
<g clip-path="url(#clip0_989_3521)">
<g filter="url(#filter0_f_989_3521)">
<path d="M328.208 92.8063C237.049 212.966 64.7903 237.746 -56.5428 148.156L-249.667 5.55558C-371 -84.0351 -395.461 -254.071 -304.302 -374.23C-213.143 -494.389 -40.8839 -519.17 80.4492 -429.58L273.573 -286.979C394.906 -197.389 419.367 -27.3529 328.208 92.8063Z" fill="url(#paint0_radial_989_3521)"/>
</g>
<g style="mix-blend-mode:screen" filter="url(#filter1_f_989_3521)">
<path d="M88.737 240.16C-95.3689 329.425 -350.315 273.964 -480.701 116.285L-646.772 -84.5486C-777.158 -242.228 -733.61 -442.415 -549.504 -531.68C-365.398 -620.945 -110.452 -565.484 19.9343 -407.805L186.005 -206.971C316.391 -49.292 272.843 150.896 88.737 240.16Z" fill="url(#paint1_radial_989_3521)"/>
</g>
<g filter="url(#filter2_f_989_3521)">
<path d="M550.959 223.948C621.486 379.718 540.445 516.55 369.949 529.569C199.453 542.589 4.06546 426.867 -66.4613 271.097L-83.2176 234.088C-153.744 78.3173 -72.7033 -58.5143 97.7926 -71.5341C268.289 -84.5538 463.676 31.1683 534.203 186.939L550.959 223.948Z" fill="url(#paint2_angular_989_3521)"/>
</g>
</g>
<g filter="url(#filter3_f_989_3521)">
<ellipse cx="377.423" cy="-289.096" rx="348.786" ry="383.042" transform="rotate(90 377.423 -289.096)" fill="#E1C8FB"/>
</g>
<g filter="url(#filter4_f_989_3521)">
<ellipse cx="165.66" cy="-289.096" rx="348.786" ry="383.042" transform="rotate(90 165.66 -289.096)" fill="#B56AFF"/>
</g>
<defs>
<filter id="filter0_f_989_3521" x="-711.218" y="-835.219" width="1446.34" height="1389.01" filterUnits="userSpaceOnUse" color-interpolation-filters="sRGB">
<feFlood flood-opacity="0" result="BackgroundImageFix"/>
<feBlend mode="normal" in="SourceGraphic" in2="BackgroundImageFix" result="shape"/>
<feGaussianBlur stdDeviation="175.902" result="effect1_foregroundBlur_989_3521"/>
</filter>
<filter id="filter1_f_989_3521" x="-1073.74" y="-926.117" width="1686.72" height="1560.71" filterUnits="userSpaceOnUse" color-interpolation-filters="sRGB">
<feFlood flood-opacity="0" result="BackgroundImageFix"/>
<feBlend mode="normal" in="SourceGraphic" in2="BackgroundImageFix" result="shape"/>
<feGaussianBlur stdDeviation="175.902" result="effect1_foregroundBlur_989_3521"/>
</filter>
<filter id="filter2_f_989_3521" x="-327.089" y="-290.948" width="1121.92" height="1039.93" filterUnits="userSpaceOnUse" color-interpolation-filters="sRGB">
<feFlood flood-opacity="0" result="BackgroundImageFix"/>
<feBlend mode="normal" in="SourceGraphic" in2="BackgroundImageFix" result="shape"/>
<feGaussianBlur stdDeviation="109.207" result="effect1_foregroundBlur_989_3521"/>
</filter>
<filter id="filter3_f_989_3521" x="-292.122" y="-924.385" width="1339.09" height="1270.58" filterUnits="userSpaceOnUse" color-interpolation-filters="sRGB">
<feFlood flood-opacity="0" result="BackgroundImageFix"/>
<feBlend mode="normal" in="SourceGraphic" in2="BackgroundImageFix" result="shape"/>
<feGaussianBlur stdDeviation="143.252" result="effect1_foregroundBlur_989_3521"/>
</filter>
<filter id="filter4_f_989_3521" x="-503.885" y="-924.385" width="1339.09" height="1270.58" filterUnits="userSpaceOnUse" color-interpolation-filters="sRGB">
<feFlood flood-opacity="0" result="BackgroundImageFix"/>
<feBlend mode="normal" in="SourceGraphic" in2="BackgroundImageFix" result="shape"/>
<feGaussianBlur stdDeviation="143.252" result="effect1_foregroundBlur_989_3521"/>
</filter>
<radialGradient id="paint0_radial_989_3521" cx="0" cy="0" r="1" gradientUnits="userSpaceOnUse" gradientTransform="translate(148.144 -33.7071) rotate(-53.6752) scale(1188.82 1711.67)">
<stop stop-color="#7900F1"/>
<stop offset="1" stop-color="#8E5AFD" stop-opacity="0"/>
</radialGradient>
<radialGradient id="paint1_radial_989_3521" cx="0" cy="0" r="1" gradientUnits="userSpaceOnUse" gradientTransform="translate(-230.383 -145.76) rotate(-25.8667) scale(370.47 1546.94)">
<stop stop-color="#BC78FF"/>
<stop offset="1" stop-color="#4951FF" stop-opacity="0.37"/>
</radialGradient>
<radialGradient id="paint2_angular_989_3521" cx="0" cy="0" r="1" gradientUnits="userSpaceOnUse" gradientTransform="translate(233.871 229.018) rotate(-114.359) scale(329.922 290.952)">
<stop stop-color="#7D27EC"/>
<stop offset="1" stop-color="#2200F1" stop-opacity="0"/>
</radialGradient>
<clipPath id="clip0_989_3521">
<rect width="2234.99" height="2121.23" fill="white" transform="translate(-216.897 -1514) rotate(35.7425)"/>
</clipPath>
</defs>
</svg>
